<?xml version="1.0" encoding="us-ascii" standalone="no"?><svg xmlns="http://www.w3.org/2000/svg" xmlns:xlink="http://www.w3.org/1999/xlink" contentStyleType="text/css" height="1498px" preserveAspectRatio="none" style="width:3557px;height:1498px;background:#FFFFFF;" version="1.1" viewBox="0 0 3557 1498" width="3557px" zoomAndPan="magnify"><defs/><g><!--cluster presentation--><g id="cluster_presentation"><path d="M2290.5,6 L2381.5,6 A3.75,3.75 0 0 1 2384,8.5 L2391,29.6094 L2545.5,29.6094 A2.5,2.5 0 0 1 2548,32.1094 L2548,244.5 A2.5,2.5 0 0 1 2545.5,247 L2290.5,247 A2.5,2.5 0 0 1 2288,244.5 L2288,8.5 A2.5,2.5 0 0 1 2290.5,6 " fill="none" style="stroke:#000000;stroke-width:1.5;"/><line style="stroke:#000000;stroke-width:1.5;" x1="2288" x2="2391" y1="29.6094" y2="29.6094"/><text fill="#000000" font-family="sans-serif" font-size="14" font-weight="bold" lengthAdjust="spacing" textLength="90" x="2292" y="22.5332">presentation</text></g><!--cluster application--><g id="cluster_application"><path d="M1759.5,271 L1837.5,271 A3.75,3.75 0 0 1 1840,273.5 L1847,294.6094 L2873.5,294.6094 A2.5,2.5 0 0 1 2876,297.1094 L2876,509.5 A2.5,2.5 0 0 1 2873.5,512 L1759.5,512 A2.5,2.5 0 0 1 1757,509.5 L1757,273.5 A2.5,2.5 0 0 1 1759.5,271 " fill="none" style="stroke:#000000;stroke-width:1.5;"/><line style="stroke:#000000;stroke-width:1.5;" x1="1757" x2="1847" y1="294.6094" y2="294.6094"/><text fill="#000000" font-family="sans-serif" font-size="14" font-weight="bold" lengthAdjust="spacing" textLength="77" x="1761" y="287.5332">application</text></g><!--cluster domain--><g id="cluster_domain"><path d="M8.5,536 L60.5,536 A3.75,3.75 0 0 1 63,538.5 L70,559.6094 L2837.5,559.6094 A2.5,2.5 0 0 1 2840,562.1094 L2840,1488.5 A2.5,2.5 0 0 1 2837.5,1491 L8.5,1491 A2.5,2.5 0 0 1 6,1488.5 L6,538.5 A2.5,2.5 0 0 1 8.5,536 " fill="none" style="stroke:#000000;stroke-width:1.5;"/><line style="stroke:#000000;stroke-width:1.5;" x1="6" x2="70" y1="559.6094" y2="559.6094"/><text fill="#000000" font-family="sans-serif" font-size="14" font-weight="bold" lengthAdjust="spacing" textLength="51" x="10" y="552.5332">domain</text></g><!--cluster infrastructure--><g id="cluster_infrastructure"><path d="M2866.5,715 L2964.5,715 A3.75,3.75 0 0 1 2967,717.5 L2974,738.6094 L3388.5,738.6094 A2.5,2.5 0 0 1 3391,741.1094 L3391,882.5 A2.5,2.5 0 0 1 3388.5,885 L2866.5,885 A2.5,2.5 0 0 1 2864,882.5 L2864,717.5 A2.5,2.5 0 0 1 2866.5,715 " fill="none" style="stroke:#000000;stroke-width:1.5;"/><line style="stroke:#000000;stroke-width:1.5;" x1="2864" x2="2974" y1="738.6094" y2="738.6094"/><text fill="#000000" font-family="sans-serif" font-size="14" font-weight="bold" lengthAdjust="spacing" textLength="97" x="2868" y="731.5332">infrastructure</text></g><!--class ConsoleUI--><g id="elem_ConsoleUI"><rect codeLine="6" fill="#F1F1F1" height="188.875" id="ConsoleUI" rx="2.5" ry="2.5" style="stroke:#181818;stroke-width:0.5;" width="228" x="2304" y="42"/><ellipse cx="2381.75" cy="58" fill="#ADD1B2" rx="11" ry="11" style="stroke:#181818;stroke-width:1.0;"/><path d="M2384.5156,53.875 Q2384.6719,53.6563 2384.8594,53.5469 Q2385.0469,53.4375 2385.2656,53.4375 Q2385.6406,53.4375 2385.875,53.7031 Q2386.1094,53.9531 2386.1094,54.5625 L2386.1094,56.0156 Q2386.1094,56.625 2385.875,56.8906 Q2385.6406,57.1563 2385.2656,57.1563 Q2384.9219,57.1563 2384.7188,56.9531 Q2384.5156,56.7656 2384.4063,56.25 Q2384.3594,55.8906 2384.1719,55.7031 Q2383.8438,55.3281 2383.2344,55.1094 Q2382.625,54.8906 2382,54.8906 Q2381.2344,54.8906 2380.5938,55.2188 Q2379.9688,55.5469 2379.4688,56.2969 Q2378.9844,57.0469 2378.9844,58.0781 L2378.9844,59.1719 Q2378.9844,60.4063 2379.875,61.2344 Q2380.7656,62.0469 2382.3594,62.0469 Q2383.2969,62.0469 2383.9531,61.7969 Q2384.3438,61.6406 2384.7656,61.2031 Q2385.0313,60.9375 2385.1719,60.8594 Q2385.3281,60.7813 2385.5313,60.7813 Q2385.8594,60.7813 2386.1094,61.0469 Q2386.375,61.2969 2386.375,61.6406 Q2386.375,61.9844 2386.0313,62.3906 Q2385.5313,62.9688 2384.7344,63.2969 Q2383.6563,63.75 2382.3594,63.75 Q2380.8438,63.75 2379.6406,63.125 Q2378.6563,62.625 2377.9688,61.5625 Q2377.2813,60.4844 2377.2813,59.2031 L2377.2813,58.0469 Q2377.2813,56.7188 2377.8906,55.5781 Q2378.5156,54.4219 2379.6094,53.8125 Q2380.7031,53.1875 2381.9375,53.1875 Q2382.6719,53.1875 2383.3125,53.3594 Q2383.9688,53.5156 2384.5156,53.875 Z " fill="#000000"/><text fill="#000000" font-family="sans-serif" font-size="14" lengthAdjust="spacing" textLength="64" x="2402.25" y="63.7285">ConsoleUI</text><line style="stroke:#181818;stroke-width:0.5;" x1="2305" x2="2531" y1="74" y2="74"/><rect fill="none" height="6" style="stroke:#C82930;stroke-width:1.0;" width="6" x="2312" y="85.3047"/><text fill="#000000" font-family="sans-serif" font-size="14" lengthAdjust="spacing" textLength="199" x="2324" y="92.5332">productService: ProductService</text><rect fill="none" height="6" style="stroke:#C82930;stroke-width:1.0;" width="6" x="2312" y="102.9141"/><text fill="#000000" font-family="sans-serif" font-size="14" lengthAdjust="spacing" textLength="202" x="2324" y="110.1426">materialService: MaterialService</text><line style="stroke:#181818;stroke-width:0.5;" x1="2305" x2="2531" y1="117.2188" y2="117.2188"/><ellipse cx="2315" cy="131.5234" fill="#84BE84" rx="3" ry="3" style="stroke:#038048;stroke-width:1.0;"/><text fill="#000000" font-family="sans-serif" font-size="14" lengthAdjust="spacing" textLength="72" x="2324" y="135.752">start(): void</text><rect fill="#F24D5C" height="6" style="stroke:#C82930;stroke-width:1.0;" width="6" x="2312" y="146.1328"/><text fill="#000000" font-family="sans-serif" font-size="14" lengthAdjust="spacing" textLength="123" x="2324" y="153.3613">displayMenu(): void</text><rect fill="#F24D5C" height="6" style="stroke:#C82930;stroke-width:1.0;" width="6" x="2312" y="163.7422"/><text fill="#000000" font-family="sans-serif" font-size="14" lengthAdjust="spacing" textLength="161" x="2324" y="170.9707">handleAddProduct(): void</text><rect fill="#F24D5C" height="6" style="stroke:#C82930;stroke-width:1.0;" width="6" x="2312" y="181.3516"/><text fill="#000000" font-family="sans-serif" font-size="14" lengthAdjust="spacing" textLength="165" x="2324" y="188.5801">handleListProducts(): void</text><rect fill="#F24D5C" height="6" style="stroke:#C82930;stroke-width:1.0;" width="6" x="2312" y="198.9609"/><text fill="#000000" font-family="sans-serif" font-size="14" lengthAdjust="spacing" textLength="162" x="2324" y="206.1895">handleAddMaterial(): void</text><rect fill="#F24D5C" height="6" style="stroke:#C82930;stroke-width:1.0;" width="6" x="2312" y="216.5703"/><text fill="#000000" font-family="sans-serif" font-size="14" lengthAdjust="spacing" textLength="166" x="2324" y="223.7988">handleListMaterials(): void</text></g><!--class ProductService--><g id="elem_ProductService"><rect codeLine="22" fill="#F1F1F1" height="188.875" id="ProductService" rx="2.5" ry="2.5" style="stroke:#181818;stroke-width:0.5;" width="730" x="1773" y="307"/><ellipse cx="2085.75" cy="323" fill="#ADD1B2" rx="11" ry="11" style="stroke:#181818;stroke-width:1.0;"/><path d="M2088.5156,318.875 Q2088.6719,318.6563 2088.8594,318.5469 Q2089.0469,318.4375 2089.2656,318.4375 Q2089.6406,318.4375 2089.875,318.7031 Q2090.1094,318.9531 2090.1094,319.5625 L2090.1094,321.0156 Q2090.1094,321.625 2089.875,321.8906 Q2089.6406,322.1563 2089.2656,322.1563 Q2088.9219,322.1563 2088.7188,321.9531 Q2088.5156,321.7656 2088.4063,321.25 Q2088.3594,320.8906 2088.1719,320.7031 Q2087.8438,320.3281 2087.2344,320.1094 Q2086.625,319.8906 2086,319.8906 Q2085.2344,319.8906 2084.5938,320.2188 Q2083.9688,320.5469 2083.4688,321.2969 Q2082.9844,322.0469 2082.9844,323.0781 L2082.9844,324.1719 Q2082.9844,325.4063 2083.875,326.2344 Q2084.7656,327.0469 2086.3594,327.0469 Q2087.2969,327.0469 2087.9531,326.7969 Q2088.3438,326.6406 2088.7656,326.2031 Q2089.0313,325.9375 2089.1719,325.8594 Q2089.3281,325.7813 2089.5313,325.7813 Q2089.8594,325.7813 2090.1094,326.0469 Q2090.375,326.2969 2090.375,326.6406 Q2090.375,326.9844 2090.0313,327.3906 Q2089.5313,327.9688 2088.7344,328.2969 Q2087.6563,328.75 2086.3594,328.75 Q2084.8438,328.75 2083.6406,328.125 Q2082.6563,327.625 2081.9688,326.5625 Q2081.2813,325.4844 2081.2813,324.2031 L2081.2813,323.0469 Q2081.2813,321.7188 2081.8906,320.5781 Q2082.5156,319.4219 2083.6094,318.8125 Q2084.7031,318.1875 2085.9375,318.1875 Q2086.6719,318.1875 2087.3125,318.3594 Q2087.9688,318.5156 2088.5156,318.875 Z " fill="#000000"/><text fill="#000000" font-family="sans-serif" font-size="14" lengthAdjust="spacing" textLength="96" x="2106.25" y="328.7285">ProductService</text><line style="stroke:#181818;stroke-width:0.5;" x1="1774" x2="2502" y1="339" y2="339"/><rect fill="none" height="6" style="stroke:#C82930;stroke-width:1.0;" width="6" x="1781" y="350.3047"/><text fill="#000000" font-family="sans-serif" font-size="14" lengthAdjust="spacing" textLength="223" x="1793" y="357.5332">strategy: ImpactCalculationStrategy</text><rect fill="none" height="6" style="stroke:#C82930;stroke-width:1.0;" width="6" x="1781" y="367.9141"/><text fill="#000000" font-family="sans-serif" font-size="14" lengthAdjust="spacing" textLength="188" x="1793" y="375.1426">repository: ProductRepository</text><rect fill="none" height="6" style="stroke:#C82930;stroke-width:1.0;" width="6" x="1781" y="385.5234"/><text fill="#000000" font-family="sans-serif" font-size="14" lengthAdjust="spacing" textLength="171" x="1793" y="392.752">selector: GuidanceSelector</text><line style="stroke:#181818;stroke-width:0.5;" x1="1774" x2="2502" y1="399.8281" y2="399.8281"/><ellipse cx="1784" cy="414.1328" fill="#84BE84" rx="3" ry="3" style="stroke:#038048;stroke-width:1.0;"/><text fill="#000000" font-family="sans-serif" font-size="14" lengthAdjust="spacing" textLength="704" x="1793" y="418.3613">ProductService(strategy: ImpactCalculationStrategy, repository: ProductRepository, selector: GuidanceSelector)</text><ellipse cx="1784" cy="431.7422" fill="#84BE84" rx="3" ry="3" style="stroke:#038048;stroke-width:1.0;"/><text fill="#000000" font-family="sans-serif" font-size="14" lengthAdjust="spacing" textLength="263" x="1793" y="435.9707">calculateImpact(product: Product): double</text><ellipse cx="1784" cy="449.3516" fill="#84BE84" rx="3" ry="3" style="stroke:#038048;stroke-width:1.0;"/><text fill="#000000" font-family="sans-serif" font-size="14" lengthAdjust="spacing" textLength="238" x="1793" y="453.5801">createProduct(product: Product): void</text><ellipse cx="1784" cy="466.9609" fill="#84BE84" rx="3" ry="3" style="stroke:#038048;stroke-width:1.0;"/><text fill="#000000" font-family="sans-serif" font-size="14" lengthAdjust="spacing" textLength="196" x="1793" y="471.1895">getAllProducts(): List&lt;Product&gt;</text><ellipse cx="1784" cy="484.5703" fill="#84BE84" rx="3" ry="3" style="stroke:#038048;stroke-width:1.0;"/><text fill="#000000" font-family="sans-serif" font-size="14" lengthAdjust="spacing" textLength="302" x="1793" y="488.7988">getRecyclingGuidance(product: Product): String</text></g><!--class MaterialService--><g id="elem_MaterialService"><rect codeLine="33" fill="#F1F1F1" height="136.0469" id="MaterialService" rx="2.5" ry="2.5" style="stroke:#181818;stroke-width:0.5;" width="322" x="2538" y="333.5"/><ellipse cx="2646.25" cy="349.5" fill="#ADD1B2" rx="11" ry="11" style="stroke:#181818;stroke-width:1.0;"/><path d="M2649.0156,345.375 Q2649.1719,345.1563 2649.3594,345.0469 Q2649.5469,344.9375 2649.7656,344.9375 Q2650.1406,344.9375 2650.375,345.2031 Q2650.6094,345.4531 2650.6094,346.0625 L2650.6094,347.5156 Q2650.6094,348.125 2650.375,348.3906 Q2650.1406,348.6563 2649.7656,348.6563 Q2649.4219,348.6563 2649.2188,348.4531 Q2649.0156,348.2656 2648.9063,347.75 Q2648.8594,347.3906 2648.6719,347.2031 Q2648.3438,346.8281 2647.7344,346.6094 Q2647.125,346.3906 2646.5,346.3906 Q2645.7344,346.3906 2645.0938,346.7188 Q2644.4688,347.0469 2643.9688,347.7969 Q2643.4844,348.5469 2643.4844,349.5781 L2643.4844,350.6719 Q2643.4844,351.9063 2644.375,352.7344 Q2645.2656,353.5469 2646.8594,353.5469 Q2647.7969,353.5469 2648.4531,353.2969 Q2648.8438,353.1406 2649.2656,352.7031 Q2649.5313,352.4375 2649.6719,352.3594 Q2649.8281,352.2813 2650.0313,352.2813 Q2650.3594,352.2813 2650.6094,352.5469 Q2650.875,352.7969 2650.875,353.1406 Q2650.875,353.4844 2650.5313,353.8906 Q2650.0313,354.4688 2649.2344,354.7969 Q2648.1563,355.25 2646.8594,355.25 Q2645.3438,355.25 2644.1406,354.625 Q2643.1563,354.125 2642.4688,353.0625 Q2641.7813,351.9844 2641.7813,350.7031 L2641.7813,349.5469 Q2641.7813,348.2188 2642.3906,347.0781 Q2643.0156,345.9219 2644.1094,345.3125 Q2645.2031,344.6875 2646.4375,344.6875 Q2647.1719,344.6875 2647.8125,344.8594 Q2648.4688,345.0156 2649.0156,345.375 Z " fill="#000000"/><text fill="#000000" font-family="sans-serif" font-size="14" lengthAdjust="spacing" textLength="97" x="2666.75" y="355.2285">MaterialService</text><line style="stroke:#181818;stroke-width:0.5;" x1="2539" x2="2859" y1="365.5" y2="365.5"/><rect fill="none" height="6" style="stroke:#C82930;stroke-width:1.0;" width="6" x="2546" y="376.8047"/><text fill="#000000" font-family="sans-serif" font-size="14" lengthAdjust="spacing" textLength="189" x="2558" y="384.0332">repository: MaterialRepository</text><line style="stroke:#181818;stroke-width:0.5;" x1="2539" x2="2859" y1="391.1094" y2="391.1094"/><ellipse cx="2549" cy="405.4141" fill="#84BE84" rx="3" ry="3" style="stroke:#038048;stroke-width:1.0;"/><text fill="#000000" font-family="sans-serif" font-size="14" lengthAdjust="spacing" textLength="296" x="2558" y="409.6426">MaterialService(repository: MaterialRepository)</text><ellipse cx="2549" cy="423.0234" fill="#84BE84" rx="3" ry="3" style="stroke:#038048;stroke-width:1.0;"/><text fill="#000000" font-family="sans-serif" font-size="14" lengthAdjust="spacing" textLength="242" x="2558" y="427.252">createMaterial(material: Material): void</text><ellipse cx="2549" cy="440.6328" fill="#84BE84" rx="3" ry="3" style="stroke:#038048;stroke-width:1.0;"/><text fill="#000000" font-family="sans-serif" font-size="14" lengthAdjust="spacing" textLength="198" x="2558" y="444.8613">getAllMaterials(): List&lt;Material&gt;</text><ellipse cx="2549" cy="458.2422" fill="#84BE84" rx="3" ry="3" style="stroke:#038048;stroke-width:1.0;"/><text fill="#000000" font-family="sans-serif" font-size="14" lengthAdjust="spacing" textLength="273" x="2558" y="462.4707">findMaterialByName(name: String): Material</text></g><!--class Product--><g id="elem_Product"><rect codeLine="48" fill="#F1F1F1" height="153.6563" id="Product" rx="2.5" ry="2.5" style="stroke:#181818;stroke-width:0.5;" width="315" x="175.5" y="733"/><ellipse cx="304.25" cy="749" fill="#ADD1B2" rx="11" ry="11" style="stroke:#181818;stroke-width:1.0;"/><path d="M307.0156,744.875 Q307.1719,744.6563 307.3594,744.5469 Q307.5469,744.4375 307.7656,744.4375 Q308.1406,744.4375 308.375,744.7031 Q308.6094,744.9531 308.6094,745.5625 L308.6094,747.0156 Q308.6094,747.625 308.375,747.8906 Q308.1406,748.1563 307.7656,748.1563 Q307.4219,748.1563 307.2188,747.9531 Q307.0156,747.7656 306.9063,747.25 Q306.8594,746.8906 306.6719,746.7031 Q306.3438,746.3281 305.7344,746.1094 Q305.125,745.8906 304.5,745.8906 Q303.7344,745.8906 303.0938,746.2188 Q302.4688,746.5469 301.9688,747.2969 Q301.4844,748.0469 301.4844,749.0781 L301.4844,750.1719 Q301.4844,751.4063 302.375,752.2344 Q303.2656,753.0469 304.8594,753.0469 Q305.7969,753.0469 306.4531,752.7969 Q306.8438,752.6406 307.2656,752.2031 Q307.5313,751.9375 307.6719,751.8594 Q307.8281,751.7813 308.0313,751.7813 Q308.3594,751.7813 308.6094,752.0469 Q308.875,752.2969 308.875,752.6406 Q308.875,752.9844 308.5313,753.3906 Q308.0313,753.9688 307.2344,754.2969 Q306.1563,754.75 304.8594,754.75 Q303.3438,754.75 302.1406,754.125 Q301.1563,753.625 300.4688,752.5625 Q299.7813,751.4844 299.7813,750.2031 L299.7813,749.0469 Q299.7813,747.7188 300.3906,746.5781 Q301.0156,745.4219 302.1094,744.8125 Q303.2031,744.1875 304.4375,744.1875 Q305.1719,744.1875 305.8125,744.3594 Q306.4688,744.5156 307.0156,744.875 Z " fill="#000000"/><text fill="#000000" font-family="sans-serif" font-size="14" lengthAdjust="spacing" textLength="49" x="324.75" y="754.7285">Product</text><line style="stroke:#181818;stroke-width:0.5;" x1="176.5" x2="489.5" y1="765" y2="765"/><rect fill="none" height="6" style="stroke:#C82930;stroke-width:1.0;" width="6" x="183.5" y="776.3047"/><text fill="#000000" font-family="sans-serif" font-size="14" lengthAdjust="spacing" textLength="80" x="195.5" y="783.5332">name: String</text><rect fill="none" height="6" style="stroke:#C82930;stroke-width:1.0;" width="6" x="183.5" y="793.9141"/><text fill="#000000" font-family="sans-serif" font-size="14" lengthAdjust="spacing" textLength="121" x="195.5" y="801.1426">category: Category</text><rect fill="none" height="6" style="stroke:#C82930;stroke-width:1.0;" width="6" x="183.5" y="811.5234"/><text fill="#000000" font-family="sans-serif" font-size="14" lengthAdjust="spacing" textLength="111" x="195.5" y="818.752">lifespan: Lifespan</text><rect fill="none" height="6" style="stroke:#C82930;stroke-width:1.0;" width="6" x="183.5" y="829.1328"/><text fill="#000000" font-family="sans-serif" font-size="14" lengthAdjust="spacing" textLength="256" x="195.5" y="836.3613">compositions: List&lt;MaterialComposition&gt;</text><line style="stroke:#181818;stroke-width:0.5;" x1="176.5" x2="489.5" y1="843.4375" y2="843.4375"/><ellipse cx="186.5" cy="857.7422" fill="#84BE84" rx="3" ry="3" style="stroke:#038048;stroke-width:1.0;"/><text fill="#000000" font-family="sans-serif" font-size="14" lengthAdjust="spacing" textLength="111" x="195.5" y="861.9707">getName(): String</text><ellipse cx="186.5" cy="875.3516" fill="#84BE84" rx="3" ry="3" style="stroke:#038048;stroke-width:1.0;"/><text fill="#000000" font-family="sans-serif" font-size="14" lengthAdjust="spacing" textLength="289" x="195.5" y="879.5801">getCompositions(): List&lt;MaterialComposition&gt;</text></g><!--class Material--><g id="elem_Material"><rect codeLine="57" fill="#F1F1F1" height="153.6563" id="Material" rx="2.5" ry="2.5" style="stroke:#181818;stroke-width:0.5;" width="302" x="1404" y="1143"/><ellipse cx="1525.75" cy="1159" fill="#ADD1B2" rx="11" ry="11" style="stroke:#181818;stroke-width:1.0;"/><path d="M1528.5156,1154.875 Q1528.6719,1154.6563 1528.8594,1154.5469 Q1529.0469,1154.4375 1529.2656,1154.4375 Q1529.6406,1154.4375 1529.875,1154.7031 Q1530.1094,1154.9531 1530.1094,1155.5625 L1530.1094,1157.0156 Q1530.1094,1157.625 1529.875,1157.8906 Q1529.6406,1158.1563 1529.2656,1158.1563 Q1528.9219,1158.1563 1528.7188,1157.9531 Q1528.5156,1157.7656 1528.4063,1157.25 Q1528.3594,1156.8906 1528.1719,1156.7031 Q1527.8438,1156.3281 1527.2344,1156.1094 Q1526.625,1155.8906 1526,1155.8906 Q1525.2344,1155.8906 1524.5938,1156.2188 Q1523.9688,1156.5469 1523.4688,1157.2969 Q1522.9844,1158.0469 1522.9844,1159.0781 L1522.9844,1160.1719 Q1522.9844,1161.4063 1523.875,1162.2344 Q1524.7656,1163.0469 1526.3594,1163.0469 Q1527.2969,1163.0469 1527.9531,1162.7969 Q1528.3438,1162.6406 1528.7656,1162.2031 Q1529.0313,1161.9375 1529.1719,1161.8594 Q1529.3281,1161.7813 1529.5313,1161.7813 Q1529.8594,1161.7813 1530.1094,1162.0469 Q1530.375,1162.2969 1530.375,1162.6406 Q1530.375,1162.9844 1530.0313,1163.3906 Q1529.5313,1163.9688 1528.7344,1164.2969 Q1527.6563,1164.75 1526.3594,1164.75 Q1524.8438,1164.75 1523.6406,1164.125 Q1522.6563,1163.625 1521.9688,1162.5625 Q1521.2813,1161.4844 1521.2813,1160.2031 L1521.2813,1159.0469 Q1521.2813,1157.7188 1521.8906,1156.5781 Q1522.5156,1155.4219 1523.6094,1154.8125 Q1524.7031,1154.1875 1525.9375,1154.1875 Q1526.6719,1154.1875 1527.3125,1154.3594 Q1527.9688,1154.5156 1528.5156,1154.875 Z " fill="#000000"/><text fill="#000000" font-family="sans-serif" font-size="14" lengthAdjust="spacing" textLength="50" x="1546.25" y="1164.7285">Material</text><line style="stroke:#181818;stroke-width:0.5;" x1="1405" x2="1705" y1="1175" y2="1175"/><rect fill="none" height="6" style="stroke:#C82930;stroke-width:1.0;" width="6" x="1412" y="1186.3047"/><text fill="#000000" font-family="sans-serif" font-size="14" lengthAdjust="spacing" textLength="80" x="1424" y="1193.5332">name: String</text><rect fill="none" height="6" style="stroke:#C82930;stroke-width:1.0;" width="6" x="1412" y="1203.9141"/><text fill="#000000" font-family="sans-serif" font-size="14" lengthAdjust="spacing" textLength="159" x="1424" y="1211.1426">baseImpactValue: double</text><rect fill="none" height="6" style="stroke:#C82930;stroke-width:1.0;" width="6" x="1412" y="1221.5234"/><text fill="#000000" font-family="sans-serif" font-size="14" lengthAdjust="spacing" textLength="241" x="1424" y="1228.752">recyclingCategory: RecyclingCategory</text><line style="stroke:#181818;stroke-width:0.5;" x1="1405" x2="1705" y1="1235.8281" y2="1235.8281"/><ellipse cx="1415" cy="1250.1328" fill="#84BE84" rx="3" ry="3" style="stroke:#038048;stroke-width:1.0;"/><text fill="#000000" font-family="sans-serif" font-size="14" lengthAdjust="spacing" textLength="111" x="1424" y="1254.3613">getName(): String</text><ellipse cx="1415" cy="1267.7422" fill="#84BE84" rx="3" ry="3" style="stroke:#038048;stroke-width:1.0;"/><text fill="#000000" font-family="sans-serif" font-size="14" lengthAdjust="spacing" textLength="154" x="1424" y="1271.9707">getBaseImpact(): double</text><ellipse cx="1415" cy="1285.3516" fill="#84BE84" rx="3" ry="3" style="stroke:#038048;stroke-width:1.0;"/><text fill="#000000" font-family="sans-serif" font-size="14" lengthAdjust="spacing" textLength="276" x="1424" y="1289.5801">getRecyclingCategory(): RecyclingCategory</text></g><!--class MaterialComposition--><g id="elem_MaterialComposition"><rect codeLine="66" fill="#F1F1F1" height="136.0469" id="MaterialComposition" rx="2.5" ry="2.5" style="stroke:#181818;stroke-width:0.5;" width="241" x="317.5" y="947"/><ellipse cx="369.75" cy="963" fill="#ADD1B2" rx="11" ry="11" style="stroke:#181818;stroke-width:1.0;"/><path d="M372.5156,958.875 Q372.6719,958.6563 372.8594,958.5469 Q373.0469,958.4375 373.2656,958.4375 Q373.6406,958.4375 373.875,958.7031 Q374.1094,958.9531 374.1094,959.5625 L374.1094,961.0156 Q374.1094,961.625 373.875,961.8906 Q373.6406,962.1563 373.2656,962.1563 Q372.9219,962.1563 372.7188,961.9531 Q372.5156,961.7656 372.4063,961.25 Q372.3594,960.8906 372.1719,960.7031 Q371.8438,960.3281 371.2344,960.1094 Q370.625,959.8906 370,959.8906 Q369.2344,959.8906 368.5938,960.2188 Q367.9688,960.5469 367.4688,961.2969 Q366.9844,962.0469 366.9844,963.0781 L366.9844,964.1719 Q366.9844,965.4063 367.875,966.2344 Q368.7656,967.0469 370.3594,967.0469 Q371.2969,967.0469 371.9531,966.7969 Q372.3438,966.6406 372.7656,966.2031 Q373.0313,965.9375 373.1719,965.8594 Q373.3281,965.7813 373.5313,965.7813 Q373.8594,965.7813 374.1094,966.0469 Q374.375,966.2969 374.375,966.6406 Q374.375,966.9844 374.0313,967.3906 Q373.5313,967.9688 372.7344,968.2969 Q371.6563,968.75 370.3594,968.75 Q368.8438,968.75 367.6406,968.125 Q366.6563,967.625 365.9688,966.5625 Q365.2813,965.4844 365.2813,964.2031 L365.2813,963.0469 Q365.2813,961.7188 365.8906,960.5781 Q366.5156,959.4219 367.6094,958.8125 Q368.7031,958.1875 369.9375,958.1875 Q370.6719,958.1875 371.3125,958.3594 Q371.9688,958.5156 372.5156,958.875 Z " fill="#000000"/><text fill="#000000" font-family="sans-serif" font-size="14" lengthAdjust="spacing" textLength="128" x="390.25" y="968.7285">MaterialComposition</text><line style="stroke:#181818;stroke-width:0.5;" x1="318.5" x2="557.5" y1="979" y2="979"/><rect fill="none" height="6" style="stroke:#C82930;stroke-width:1.0;" width="6" x="325.5" y="990.3047"/><text fill="#000000" font-family="sans-serif" font-size="14" lengthAdjust="spacing" textLength="101" x="337.5" y="997.5332">quantity: double</text><rect fill="none" height="6" style="stroke:#C82930;stroke-width:1.0;" width="6" x="325.5" y="1007.9141"/><text fill="#000000" font-family="sans-serif" font-size="14" lengthAdjust="spacing" textLength="108" x="337.5" y="1015.1426">material: Material</text><line style="stroke:#181818;stroke-width:0.5;" x1="318.5" x2="557.5" y1="1022.2188" y2="1022.2188"/><ellipse cx="328.5" cy="1036.5234" fill="#84BE84" rx="3" ry="3" style="stroke:#038048;stroke-width:1.0;"/><text fill="#000000" font-family="sans-serif" font-size="14" lengthAdjust="spacing" textLength="134" x="337.5" y="1040.752">getQuantity(): double</text><ellipse cx="328.5" cy="1054.1328" fill="#84BE84" rx="3" ry="3" style="stroke:#038048;stroke-width:1.0;"/><text fill="#000000" font-family="sans-serif" font-size="14" lengthAdjust="spacing" textLength="138" x="337.5" y="1058.3613">getMaterial(): Material</text><ellipse cx="328.5" cy="1071.7422" fill="#84BE84" rx="3" ry="3" style="stroke:#038048;stroke-width:1.0;"/><text fill="#000000" font-family="sans-serif" font-size="14" lengthAdjust="spacing" textLength="215" x="337.5" y="1075.9707">getCategory(): RecyclingCategory</text></g><!--class GuidanceSelector--><g id="elem_GuidanceSelector"><rect codeLine="74" fill="#F1F1F1" height="100.8281" id="GuidanceSelector" rx="2.5" ry="2.5" style="stroke:#181818;stroke-width:0.5;" width="436" x="1264" y="572"/><ellipse cx="1421.25" cy="588" fill="#ADD1B2" rx="11" ry="11" style="stroke:#181818;stroke-width:1.0;"/><path d="M1424.0156,583.875 Q1424.1719,583.6563 1424.3594,583.5469 Q1424.5469,583.4375 1424.7656,583.4375 Q1425.1406,583.4375 1425.375,583.7031 Q1425.6094,583.9531 1425.6094,584.5625 L1425.6094,586.0156 Q1425.6094,586.625 1425.375,586.8906 Q1425.1406,587.1563 1424.7656,587.1563 Q1424.4219,587.1563 1424.2188,586.9531 Q1424.0156,586.7656 1423.9063,586.25 Q1423.8594,585.8906 1423.6719,585.7031 Q1423.3438,585.3281 1422.7344,585.1094 Q1422.125,584.8906 1421.5,584.8906 Q1420.7344,584.8906 1420.0938,585.2188 Q1419.4688,585.5469 1418.9688,586.2969 Q1418.4844,587.0469 1418.4844,588.0781 L1418.4844,589.1719 Q1418.4844,590.4063 1419.375,591.2344 Q1420.2656,592.0469 1421.8594,592.0469 Q1422.7969,592.0469 1423.4531,591.7969 Q1423.8438,591.6406 1424.2656,591.2031 Q1424.5313,590.9375 1424.6719,590.8594 Q1424.8281,590.7813 1425.0313,590.7813 Q1425.3594,590.7813 1425.6094,591.0469 Q1425.875,591.2969 1425.875,591.6406 Q1425.875,591.9844 1425.5313,592.3906 Q1425.0313,592.9688 1424.2344,593.2969 Q1423.1563,593.75 1421.8594,593.75 Q1420.3438,593.75 1419.1406,593.125 Q1418.1563,592.625 1417.4688,591.5625 Q1416.7813,590.4844 1416.7813,589.2031 L1416.7813,588.0469 Q1416.7813,586.7188 1417.3906,585.5781 Q1418.0156,584.4219 1419.1094,583.8125 Q1420.2031,583.1875 1421.4375,583.1875 Q1422.1719,583.1875 1422.8125,583.3594 Q1423.4688,583.5156 1424.0156,583.875 Z " fill="#000000"/><text fill="#000000" font-family="sans-serif" font-size="14" lengthAdjust="spacing" textLength="113" x="1441.75" y="593.7285">GuidanceSelector</text><line style="stroke:#181818;stroke-width:0.5;" x1="1265" x2="1699" y1="604" y2="604"/><rect fill="none" height="6" style="stroke:#C82930;stroke-width:1.0;" width="6" x="1272" y="615.3047"/><text fill="#000000" font-family="sans-serif" font-size="14" lengthAdjust="spacing" textLength="243" x="1284" y="622.5332">implementables: List&lt;RecyclingGuide&gt;</text><line style="stroke:#181818;stroke-width:0.5;" x1="1265" x2="1699" y1="629.6094" y2="629.6094"/><ellipse cx="1275" cy="643.9141" fill="#84BE84" rx="3" ry="3" style="stroke:#038048;stroke-width:1.0;"/><text fill="#000000" font-family="sans-serif" font-size="14" lengthAdjust="spacing" textLength="366" x="1284" y="648.1426">GuidanceSelector(implementables: List&lt;RecyclingGuide&gt;)</text><ellipse cx="1275" cy="661.5234" fill="#84BE84" rx="3" ry="3" style="stroke:#038048;stroke-width:1.0;"/><text fill="#000000" font-family="sans-serif" font-size="14" lengthAdjust="spacing" textLength="410" x="1284" y="665.752">select(compositions: List&lt;MaterialComposition&gt;): RecyclingGuide</text></g><!--class Category--><g id="elem_Category"><rect codeLine="81" fill="#F1F1F1" height="100.8281" id="Category" rx="2.5" ry="2.5" style="stroke:#181818;stroke-width:0.5;" width="109" x="173.5" y="964.5"/><ellipse cx="197.05" cy="980.5" fill="#EB937F" rx="11" ry="11" style="stroke:#181818;stroke-width:1.0;"/><path d="M195.9094,981.2969 L195.9094,983.7969 L200.2375,983.7969 L200.2375,982.875 Q200.2375,982.2656 200.4719,982 Q200.7219,981.7344 201.0969,981.7344 Q201.4719,981.7344 201.7063,982 Q201.9406,982.2656 201.9406,982.875 L201.9406,985.5 L193.9406,985.5 Q193.3156,985.5 193.05,985.2656 Q192.8,985.0313 192.8,984.6406 Q192.8,984.2656 193.0656,984.0313 Q193.3313,983.7969 193.9406,983.7969 L194.2063,983.7969 L194.2063,977.1406 L193.9406,977.1406 Q193.3156,977.1406 193.05,976.9063 Q192.8,976.6719 192.8,976.2813 Q192.8,975.9063 193.05,975.6719 Q193.3156,975.4375 193.9406,975.4375 L201.5656,975.4375 L201.5656,978.0313 Q201.5656,978.6406 201.3313,978.9063 Q201.1125,979.1563 200.7219,979.1563 Q200.3469,979.1563 200.1125,978.9063 Q199.8781,978.6406 199.8781,978.0313 L199.8781,977.1406 L195.9094,977.1406 L195.9094,979.5938 L197.3938,979.5938 Q197.3938,978.9375 197.5188,978.75 Q197.7844,978.3438 198.2531,978.3438 Q198.6281,978.3438 198.8625,978.6094 Q199.0969,978.8594 199.0969,979.4688 L199.0969,981.4375 Q199.0969,981.9844 198.9719,982.1719 Q198.7063,982.5625 198.2531,982.5625 Q197.7844,982.5625 197.5188,982.1563 Q197.3938,981.9688 197.3938,981.2969 L195.9094,981.2969 Z " fill="#000000"/><text fill="#000000" font-family="sans-serif" font-size="14" lengthAdjust="spacing" textLength="58" x="212.95" y="986.2285">Category</text><line style="stroke:#181818;stroke-width:0.5;" x1="174.5" x2="281.5" y1="996.5" y2="996.5"/><text fill="#000000" font-family="sans-serif" font-size="14" lengthAdjust="spacing" textLength="97" x="179.5" y="1015.0332">ELECTRONICS</text><text fill="#000000" font-family="sans-serif" font-size="14" lengthAdjust="spacing" textLength="85" x="179.5" y="1032.6426">HOUSEHOLD</text><text fill="#000000" font-family="sans-serif" font-size="14" lengthAdjust="spacing" textLength="80" x="179.5" y="1050.252">PACKAGING</text><line style="stroke:#181818;stroke-width:0.5;" x1="174.5" x2="281.5" y1="1057.3281" y2="1057.3281"/></g><!--class Lifespan--><g id="elem_Lifespan"><rect codeLine="87" fill="#F1F1F1" height="83.2188" id="Lifespan" rx="2.5" ry="2.5" style="stroke:#181818;stroke-width:0.5;" width="116" x="22" y="973.5"/><ellipse cx="50.5" cy="989.5" fill="#ADD1B2" rx="11" ry="11" style="stroke:#181818;stroke-width:1.0;"/><path d="M53.2656,985.375 Q53.4219,985.1563 53.6094,985.0469 Q53.7969,984.9375 54.0156,984.9375 Q54.3906,984.9375 54.625,985.2031 Q54.8594,985.4531 54.8594,986.0625 L54.8594,987.5156 Q54.8594,988.125 54.625,988.3906 Q54.3906,988.6563 54.0156,988.6563 Q53.6719,988.6563 53.4688,988.4531 Q53.2656,988.2656 53.1563,987.75 Q53.1094,987.3906 52.9219,987.2031 Q52.5938,986.8281 51.9844,986.6094 Q51.375,986.3906 50.75,986.3906 Q49.9844,986.3906 49.3438,986.7188 Q48.7188,987.0469 48.2188,987.7969 Q47.7344,988.5469 47.7344,989.5781 L47.7344,990.6719 Q47.7344,991.9063 48.625,992.7344 Q49.5156,993.5469 51.1094,993.5469 Q52.0469,993.5469 52.7031,993.2969 Q53.0938,993.1406 53.5156,992.7031 Q53.7813,992.4375 53.9219,992.3594 Q54.0781,992.2813 54.2813,992.2813 Q54.6094,992.2813 54.8594,992.5469 Q55.125,992.7969 55.125,993.1406 Q55.125,993.4844 54.7813,993.8906 Q54.2813,994.4688 53.4844,994.7969 Q52.4063,995.25 51.1094,995.25 Q49.5938,995.25 48.3906,994.625 Q47.4063,994.125 46.7188,993.0625 Q46.0313,991.9844 46.0313,990.7031 L46.0313,989.5469 Q46.0313,988.2188 46.6406,987.0781 Q47.2656,985.9219 48.3594,985.3125 Q49.4531,984.6875 50.6875,984.6875 Q51.4219,984.6875 52.0625,984.8594 Q52.7188,985.0156 53.2656,985.375 Z " fill="#000000"/><text fill="#000000" font-family="sans-serif" font-size="14" lengthAdjust="spacing" textLength="54" x="67.5" y="995.2285">Lifespan</text><line style="stroke:#181818;stroke-width:0.5;" x1="23" x2="137" y1="1005.5" y2="1005.5"/><rect fill="none" height="6" style="stroke:#C82930;stroke-width:1.0;" width="6" x="30" y="1016.8047"/><text fill="#000000" font-family="sans-serif" font-size="14" lengthAdjust="spacing" textLength="58" x="42" y="1024.0332">years: int</text><line style="stroke:#181818;stroke-width:0.5;" x1="23" x2="137" y1="1031.1094" y2="1031.1094"/><ellipse cx="33" cy="1045.4141" fill="#84BE84" rx="3" ry="3" style="stroke:#038048;stroke-width:1.0;"/><text fill="#000000" font-family="sans-serif" font-size="14" lengthAdjust="spacing" textLength="90" x="42" y="1049.6426">getYears(): int</text></g><!--class RecyclingCategory--><g id="elem_RecyclingCategory"><rect codeLine="92" fill="#F1F1F1" height="118.4375" id="RecyclingCategory" rx="2.5" ry="2.5" style="stroke:#181818;stroke-width:0.5;" width="151" x="1479.5" y="1357"/><ellipse cx="1494.5" cy="1373" fill="#EB937F" rx="11" ry="11" style="stroke:#181818;stroke-width:1.0;"/><path d="M1493.3594,1373.7969 L1493.3594,1376.2969 L1497.6875,1376.2969 L1497.6875,1375.375 Q1497.6875,1374.7656 1497.9219,1374.5 Q1498.1719,1374.2344 1498.5469,1374.2344 Q1498.9219,1374.2344 1499.1563,1374.5 Q1499.3906,1374.7656 1499.3906,1375.375 L1499.3906,1378 L1491.3906,1378 Q1490.7656,1378 1490.5,1377.7656 Q1490.25,1377.5313 1490.25,1377.1406 Q1490.25,1376.7656 1490.5156,1376.5313 Q1490.7813,1376.2969 1491.3906,1376.2969 L1491.6563,1376.2969 L1491.6563,1369.6406 L1491.3906,1369.6406 Q1490.7656,1369.6406 1490.5,1369.4063 Q1490.25,1369.1719 1490.25,1368.7813 Q1490.25,1368.4063 1490.5,1368.1719 Q1490.7656,1367.9375 1491.3906,1367.9375 L1499.0156,1367.9375 L1499.0156,1370.5313 Q1499.0156,1371.1406 1498.7813,1371.4063 Q1498.5625,1371.6563 1498.1719,1371.6563 Q1497.7969,1371.6563 1497.5625,1371.4063 Q1497.3281,1371.1406 1497.3281,1370.5313 L1497.3281,1369.6406 L1493.3594,1369.6406 L1493.3594,1372.0938 L1494.8438,1372.0938 Q1494.8438,1371.4375 1494.9688,1371.25 Q1495.2344,1370.8438 1495.7031,1370.8438 Q1496.0781,1370.8438 1496.3125,1371.1094 Q1496.5469,1371.3594 1496.5469,1371.9688 L1496.5469,1373.9375 Q1496.5469,1374.4844 1496.4219,1374.6719 Q1496.1563,1375.0625 1495.7031,1375.0625 Q1495.2344,1375.0625 1494.9688,1374.6563 Q1494.8438,1374.4688 1494.8438,1373.7969 L1493.3594,1373.7969 Z " fill="#000000"/><text fill="#000000" font-family="sans-serif" font-size="14" lengthAdjust="spacing" textLength="119" x="1508.5" y="1378.7285">RecyclingCategory</text><line style="stroke:#181818;stroke-width:0.5;" x1="1480.5" x2="1629.5" y1="1389" y2="1389"/><text fill="#000000" font-family="sans-serif" font-size="14" lengthAdjust="spacing" textLength="91" x="1485.5" y="1407.5332">RECYCLABLE</text><text fill="#000000" font-family="sans-serif" font-size="14" lengthAdjust="spacing" textLength="105" x="1485.5" y="1425.1426">COMPOSTABLE</text><text fill="#000000" font-family="sans-serif" font-size="14" lengthAdjust="spacing" textLength="84" x="1485.5" y="1442.752">HAZARDOUS</text><text fill="#000000" font-family="sans-serif" font-size="14" lengthAdjust="spacing" textLength="64" x="1485.5" y="1460.3613">LANDFILL</text><line style="stroke:#181818;stroke-width:0.5;" x1="1480.5" x2="1629.5" y1="1467.4375" y2="1467.4375"/></g><!--class ImpactCalculationStrategy--><g id="elem_ImpactCalculationStrategy"><rect codeLine="100" fill="#F1F1F1" height="65.6094" id="ImpactCalculationStrategy" rx="2.5" ry="2.5" style="stroke:#181818;stroke-width:0.5;" width="289" x="1993.5" y="589.5"/><ellipse cx="2051.25" cy="605.5" fill="#B4A7E5" rx="11" ry="11" style="stroke:#181818;stroke-width:1.0;"/><path d="M2052.2031,602.1406 L2052.2031,608.7969 L2053.9219,608.7969 Q2054.5313,608.7969 2054.7969,609.0313 Q2055.0625,609.2656 2055.0625,609.6563 Q2055.0625,610.0313 2054.7969,610.2656 Q2054.5313,610.5 2053.9219,610.5 L2048.7813,610.5 Q2048.1719,610.5 2047.9063,610.2656 Q2047.6406,610.0313 2047.6406,609.6406 Q2047.6406,609.2656 2047.9063,609.0313 Q2048.1719,608.7969 2048.7813,608.7969 L2050.5,608.7969 L2050.5,602.1406 L2048.7813,602.1406 Q2048.1719,602.1406 2047.9063,601.9063 Q2047.6406,601.6719 2047.6406,601.2813 Q2047.6406,600.9063 2047.9063,600.6719 Q2048.1719,600.4375 2048.7813,600.4375 L2053.9219,600.4375 Q2054.5313,600.4375 2054.7969,600.6719 Q2055.0625,600.9063 2055.0625,601.2813 Q2055.0625,601.6719 2054.7969,601.9063 Q2054.5313,602.1406 2053.9219,602.1406 L2052.2031,602.1406 Z " fill="#000000"/><text fill="#000000" font-family="sans-serif" font-size="14" font-style="italic" lengthAdjust="spacing" textLength="165" x="2071.75" y="611.2285">ImpactCalculationStrategy</text><line style="stroke:#181818;stroke-width:0.5;" x1="1994.5" x2="2281.5" y1="621.5" y2="621.5"/><line style="stroke:#181818;stroke-width:0.5;" x1="1994.5" x2="2281.5" y1="629.5" y2="629.5"/><ellipse cx="2004.5" cy="643.8047" fill="#84BE84" rx="3" ry="3" style="stroke:#038048;stroke-width:1.0;"/><text fill="#000000" font-family="sans-serif" font-size="14" lengthAdjust="spacing" textLength="263" x="2013.5" y="648.0332">calculateImpact(product: Product): double</text></g><!--class SimpleImpactStrategy--><g id="elem_SimpleImpactStrategy"><rect codeLine="104" fill="#F1F1F1" height="65.6094" id="SimpleImpactStrategy" rx="2.5" ry="2.5" style="stroke:#181818;stroke-width:0.5;" width="289" x="1860.5" y="777"/><ellipse cx="1932.75" cy="793" fill="#ADD1B2" rx="11" ry="11" style="stroke:#181818;stroke-width:1.0;"/><path d="M1935.5156,788.875 Q1935.6719,788.6563 1935.8594,788.5469 Q1936.0469,788.4375 1936.2656,788.4375 Q1936.6406,788.4375 1936.875,788.7031 Q1937.1094,788.9531 1937.1094,789.5625 L1937.1094,791.0156 Q1937.1094,791.625 1936.875,791.8906 Q1936.6406,792.1563 1936.2656,792.1563 Q1935.9219,792.1563 1935.7188,791.9531 Q1935.5156,791.7656 1935.4063,791.25 Q1935.3594,790.8906 1935.1719,790.7031 Q1934.8438,790.3281 1934.2344,790.1094 Q1933.625,789.8906 1933,789.8906 Q1932.2344,789.8906 1931.5938,790.2188 Q1930.9688,790.5469 1930.4688,791.2969 Q1929.9844,792.0469 1929.9844,793.0781 L1929.9844,794.1719 Q1929.9844,795.4063 1930.875,796.2344 Q1931.7656,797.0469 1933.3594,797.0469 Q1934.2969,797.0469 1934.9531,796.7969 Q1935.3438,796.6406 1935.7656,796.2031 Q1936.0313,795.9375 1936.1719,795.8594 Q1936.3281,795.7813 1936.5313,795.7813 Q1936.8594,795.7813 1937.1094,796.0469 Q1937.375,796.2969 1937.375,796.6406 Q1937.375,796.9844 1937.0313,797.3906 Q1936.5313,797.9688 1935.7344,798.2969 Q1934.6563,798.75 1933.3594,798.75 Q1931.8438,798.75 1930.6406,798.125 Q1929.6563,797.625 1928.9688,796.5625 Q1928.2813,795.4844 1928.2813,794.2031 L1928.2813,793.0469 Q1928.2813,791.7188 1928.8906,790.5781 Q1929.5156,789.4219 1930.6094,788.8125 Q1931.7031,788.1875 1932.9375,788.1875 Q1933.6719,788.1875 1934.3125,788.3594 Q1934.9688,788.5156 1935.5156,788.875 Z " fill="#000000"/><text fill="#000000" font-family="sans-serif" font-size="14" lengthAdjust="spacing" textLength="136" x="1953.25" y="798.7285">SimpleImpactStrategy</text><line style="stroke:#181818;stroke-width:0.5;" x1="1861.5" x2="2148.5" y1="809" y2="809"/><line style="stroke:#181818;stroke-width:0.5;" x1="1861.5" x2="2148.5" y1="817" y2="817"/><ellipse cx="1871.5" cy="831.3047" fill="#84BE84" rx="3" ry="3" style="stroke:#038048;stroke-width:1.0;"/><text fill="#000000" font-family="sans-serif" font-size="14" lengthAdjust="spacing" textLength="263" x="1880.5" y="835.5332">calculateImpact(product: Product): double</text></g><!--class WeightedImpactStrategy--><g id="elem_WeightedImpactStrategy"><rect codeLine="108" fill="#F1F1F1" height="65.6094" id="WeightedImpactStrategy" rx="2.5" ry="2.5" style="stroke:#181818;stroke-width:0.5;" width="289" x="2184.5" y="777"/><ellipse cx="2247.75" cy="793" fill="#ADD1B2" rx="11" ry="11" style="stroke:#181818;stroke-width:1.0;"/><path d="M2250.5156,788.875 Q2250.6719,788.6563 2250.8594,788.5469 Q2251.0469,788.4375 2251.2656,788.4375 Q2251.6406,788.4375 2251.875,788.7031 Q2252.1094,788.9531 2252.1094,789.5625 L2252.1094,791.0156 Q2252.1094,791.625 2251.875,791.8906 Q2251.6406,792.1563 2251.2656,792.1563 Q2250.9219,792.1563 2250.7188,791.9531 Q2250.5156,791.7656 2250.4063,791.25 Q2250.3594,790.8906 2250.1719,790.7031 Q2249.8438,790.3281 2249.2344,790.1094 Q2248.625,789.8906 2248,789.8906 Q2247.2344,789.8906 2246.5938,790.2188 Q2245.9688,790.5469 2245.4688,791.2969 Q2244.9844,792.0469 2244.9844,793.0781 L2244.9844,794.1719 Q2244.9844,795.4063 2245.875,796.2344 Q2246.7656,797.0469 2248.3594,797.0469 Q2249.2969,797.0469 2249.9531,796.7969 Q2250.3438,796.6406 2250.7656,796.2031 Q2251.0313,795.9375 2251.1719,795.8594 Q2251.3281,795.7813 2251.5313,795.7813 Q2251.8594,795.7813 2252.1094,796.0469 Q2252.375,796.2969 2252.375,796.6406 Q2252.375,796.9844 2252.0313,797.3906 Q2251.5313,797.9688 2250.7344,798.2969 Q2249.6563,798.75 2248.3594,798.75 Q2246.8438,798.75 2245.6406,798.125 Q2244.6563,797.625 2243.9688,796.5625 Q2243.2813,795.4844 2243.2813,794.2031 L2243.2813,793.0469 Q2243.2813,791.7188 2243.8906,790.5781 Q2244.5156,789.4219 2245.6094,788.8125 Q2246.7031,788.1875 2247.9375,788.1875 Q2248.6719,788.1875 2249.3125,788.3594 Q2249.9688,788.5156 2250.5156,788.875 Z " fill="#000000"/><text fill="#000000" font-family="sans-serif" font-size="14" lengthAdjust="spacing" textLength="154" x="2268.25" y="798.7285">WeightedImpactStrategy</text><line style="stroke:#181818;stroke-width:0.5;" x1="2185.5" x2="2472.5" y1="809" y2="809"/><line style="stroke:#181818;stroke-width:0.5;" x1="2185.5" x2="2472.5" y1="817" y2="817"/><ellipse cx="2195.5" cy="831.3047" fill="#84BE84" rx="3" ry="3" style="stroke:#038048;stroke-width:1.0;"/><text fill="#000000" font-family="sans-serif" font-size="14" lengthAdjust="spacing" textLength="263" x="2204.5" y="835.5332">calculateImpact(product: Product): double</text></g><!--class RecyclingGuide--><g id="elem_RecyclingGuide"><rect codeLine="113" fill="#F1F1F1" height="83.2188" id="RecyclingGuide" rx="2.5" ry="2.5" style="stroke:#181818;stroke-width:0.5;" width="418" x="1273" y="768.5"/><ellipse cx="1428.25" cy="784.5" fill="#B4A7E5" rx="11" ry="11" style="stroke:#181818;stroke-width:1.0;"/><path d="M1429.2031,781.1406 L1429.2031,787.7969 L1430.9219,787.7969 Q1431.5313,787.7969 1431.7969,788.0313 Q1432.0625,788.2656 1432.0625,788.6563 Q1432.0625,789.0313 1431.7969,789.2656 Q1431.5313,789.5 1430.9219,789.5 L1425.7813,789.5 Q1425.1719,789.5 1424.9063,789.2656 Q1424.6406,789.0313 1424.6406,788.6406 Q1424.6406,788.2656 1424.9063,788.0313 Q1425.1719,787.7969 1425.7813,787.7969 L1427.5,787.7969 L1427.5,781.1406 L1425.7813,781.1406 Q1425.1719,781.1406 1424.9063,780.9063 Q1424.6406,780.6719 1424.6406,780.2813 Q1424.6406,779.9063 1424.9063,779.6719 Q1425.1719,779.4375 1425.7813,779.4375 L1430.9219,779.4375 Q1431.5313,779.4375 1431.7969,779.6719 Q1432.0625,779.9063 1432.0625,780.2813 Q1432.0625,780.6719 1431.7969,780.9063 Q1431.5313,781.1406 1430.9219,781.1406 L1429.2031,781.1406 Z " fill="#000000"/><text fill="#000000" font-family="sans-serif" font-size="14" font-style="italic" lengthAdjust="spacing" textLength="99" x="1448.75" y="790.2285">RecyclingGuide</text><line style="stroke:#181818;stroke-width:0.5;" x1="1274" x2="1690" y1="800.5" y2="800.5"/><line style="stroke:#181818;stroke-width:0.5;" x1="1274" x2="1690" y1="808.5" y2="808.5"/><ellipse cx="1284" cy="822.8047" fill="#84BE84" rx="3" ry="3" style="stroke:#038048;stroke-width:1.0;"/><text fill="#000000" font-family="sans-serif" font-size="14" lengthAdjust="spacing" textLength="380" x="1293" y="827.0332">supports(compositions: List&lt;MaterialComposition&gt;): boolean</text><ellipse cx="1284" cy="840.4141" fill="#84BE84" rx="3" ry="3" style="stroke:#038048;stroke-width:1.0;"/><text fill="#000000" font-family="sans-serif" font-size="14" lengthAdjust="spacing" textLength="392" x="1293" y="844.6426">getGuidance(compositions: List&lt;MaterialComposition&gt;): String</text></g><!--class RecyclableGuidance--><g id="elem_RecyclableGuidance"><rect codeLine="118" fill="#F1F1F1" height="83.2188" id="RecyclableGuidance" rx="2.5" ry="2.5" style="stroke:#181818;stroke-width:0.5;" width="418" x="1500" y="973.5"/><ellipse cx="1639.75" cy="989.5" fill="#ADD1B2" rx="11" ry="11" style="stroke:#181818;stroke-width:1.0;"/><path d="M1642.5156,985.375 Q1642.6719,985.1563 1642.8594,985.0469 Q1643.0469,984.9375 1643.2656,984.9375 Q1643.6406,984.9375 1643.875,985.2031 Q1644.1094,985.4531 1644.1094,986.0625 L1644.1094,987.5156 Q1644.1094,988.125 1643.875,988.3906 Q1643.6406,988.6563 1643.2656,988.6563 Q1642.9219,988.6563 1642.7188,988.4531 Q1642.5156,988.2656 1642.4063,987.75 Q1642.3594,987.3906 1642.1719,987.2031 Q1641.8438,986.8281 1641.2344,986.6094 Q1640.625,986.3906 1640,986.3906 Q1639.2344,986.3906 1638.5938,986.7188 Q1637.9688,987.0469 1637.4688,987.7969 Q1636.9844,988.5469 1636.9844,989.5781 L1636.9844,990.6719 Q1636.9844,991.9063 1637.875,992.7344 Q1638.7656,993.5469 1640.3594,993.5469 Q1641.2969,993.5469 1641.9531,993.2969 Q1642.3438,993.1406 1642.7656,992.7031 Q1643.0313,992.4375 1643.1719,992.3594 Q1643.3281,992.2813 1643.5313,992.2813 Q1643.8594,992.2813 1644.1094,992.5469 Q1644.375,992.7969 1644.375,993.1406 Q1644.375,993.4844 1644.0313,993.8906 Q1643.5313,994.4688 1642.7344,994.7969 Q1641.6563,995.25 1640.3594,995.25 Q1638.8438,995.25 1637.6406,994.625 Q1636.6563,994.125 1635.9688,993.0625 Q1635.2813,991.9844 1635.2813,990.7031 L1635.2813,989.5469 Q1635.2813,988.2188 1635.8906,987.0781 Q1636.5156,985.9219 1637.6094,985.3125 Q1638.7031,984.6875 1639.9375,984.6875 Q1640.6719,984.6875 1641.3125,984.8594 Q1641.9688,985.0156 1642.5156,985.375 Z " fill="#000000"/><text fill="#000000" font-family="sans-serif" font-size="14" lengthAdjust="spacing" textLength="130" x="1660.25" y="995.2285">RecyclableGuidance</text><line style="stroke:#181818;stroke-width:0.5;" x1="1501" x2="1917" y1="1005.5" y2="1005.5"/><line style="stroke:#181818;stroke-width:0.5;" x1="1501" x2="1917" y1="1013.5" y2="1013.5"/><ellipse cx="1511" cy="1027.8047" fill="#84BE84" rx="3" ry="3" style="stroke:#038048;stroke-width:1.0;"/><text fill="#000000" font-family="sans-serif" font-size="14" lengthAdjust="spacing" textLength="380" x="1520" y="1032.0332">supports(compositions: List&lt;MaterialComposition&gt;): boolean</text><ellipse cx="1511" cy="1045.4141" fill="#84BE84" rx="3" ry="3" style="stroke:#038048;stroke-width:1.0;"/><text fill="#000000" font-family="sans-serif" font-size="14" lengthAdjust="spacing" textLength="392" x="1520" y="1049.6426">getGuidance(compositions: List&lt;MaterialComposition&gt;): String</text></g><!--class CompostableGuidance--><g id="elem_CompostableGuidance"><rect codeLine="123" fill="#F1F1F1" height="83.2188" id="CompostableGuidance" rx="2.5" ry="2.5" style="stroke:#181818;stroke-width:0.5;" width="418" x="1953" y="973.5"/><ellipse cx="2085.75" cy="989.5" fill="#ADD1B2" rx="11" ry="11" style="stroke:#181818;stroke-width:1.0;"/><path d="M2088.5156,985.375 Q2088.6719,985.1563 2088.8594,985.0469 Q2089.0469,984.9375 2089.2656,984.9375 Q2089.6406,984.9375 2089.875,985.2031 Q2090.1094,985.4531 2090.1094,986.0625 L2090.1094,987.5156 Q2090.1094,988.125 2089.875,988.3906 Q2089.6406,988.6563 2089.2656,988.6563 Q2088.9219,988.6563 2088.7188,988.4531 Q2088.5156,988.2656 2088.4063,987.75 Q2088.3594,987.3906 2088.1719,987.2031 Q2087.8438,986.8281 2087.2344,986.6094 Q2086.625,986.3906 2086,986.3906 Q2085.2344,986.3906 2084.5938,986.7188 Q2083.9688,987.0469 2083.4688,987.7969 Q2082.9844,988.5469 2082.9844,989.5781 L2082.9844,990.6719 Q2082.9844,991.9063 2083.875,992.7344 Q2084.7656,993.5469 2086.3594,993.5469 Q2087.2969,993.5469 2087.9531,993.2969 Q2088.3438,993.1406 2088.7656,992.7031 Q2089.0313,992.4375 2089.1719,992.3594 Q2089.3281,992.2813 2089.5313,992.2813 Q2089.8594,992.2813 2090.1094,992.5469 Q2090.375,992.7969 2090.375,993.1406 Q2090.375,993.4844 2090.0313,993.8906 Q2089.5313,994.4688 2088.7344,994.7969 Q2087.6563,995.25 2086.3594,995.25 Q2084.8438,995.25 2083.6406,994.625 Q2082.6563,994.125 2081.9688,993.0625 Q2081.2813,991.9844 2081.2813,990.7031 L2081.2813,989.5469 Q2081.2813,988.2188 2081.8906,987.0781 Q2082.5156,985.9219 2083.6094,985.3125 Q2084.7031,984.6875 2085.9375,984.6875 Q2086.6719,984.6875 2087.3125,984.8594 Q2087.9688,985.0156 2088.5156,985.375 Z " fill="#000000"/><text fill="#000000" font-family="sans-serif" font-size="14" lengthAdjust="spacing" textLength="144" x="2106.25" y="995.2285">CompostableGuidance</text><line style="stroke:#181818;stroke-width:0.5;" x1="1954" x2="2370" y1="1005.5" y2="1005.5"/><line style="stroke:#181818;stroke-width:0.5;" x1="1954" x2="2370" y1="1013.5" y2="1013.5"/><ellipse cx="1964" cy="1027.8047" fill="#84BE84" rx="3" ry="3" style="stroke:#038048;stroke-width:1.0;"/><text fill="#000000" font-family="sans-serif" font-size="14" lengthAdjust="spacing" textLength="380" x="1973" y="1032.0332">supports(compositions: List&lt;MaterialComposition&gt;): boolean</text><ellipse cx="1964" cy="1045.4141" fill="#84BE84" rx="3" ry="3" style="stroke:#038048;stroke-width:1.0;"/><text fill="#000000" font-family="sans-serif" font-size="14" lengthAdjust="spacing" textLength="392" x="1973" y="1049.6426">getGuidance(compositions: List&lt;MaterialComposition&gt;): String</text></g><!--class HazardousGuidance--><g id="elem_HazardousGuidance"><rect codeLine="128" fill="#F1F1F1" height="83.2188" id="HazardousGuidance" rx="2.5" ry="2.5" style="stroke:#181818;stroke-width:0.5;" width="418" x="2406" y="973.5"/><ellipse cx="2546.75" cy="989.5" fill="#ADD1B2" rx="11" ry="11" style="stroke:#181818;stroke-width:1.0;"/><path d="M2549.5156,985.375 Q2549.6719,985.1563 2549.8594,985.0469 Q2550.0469,984.9375 2550.2656,984.9375 Q2550.6406,984.9375 2550.875,985.2031 Q2551.1094,985.4531 2551.1094,986.0625 L2551.1094,987.5156 Q2551.1094,988.125 2550.875,988.3906 Q2550.6406,988.6563 2550.2656,988.6563 Q2549.9219,988.6563 2549.7188,988.4531 Q2549.5156,988.2656 2549.4063,987.75 Q2549.3594,987.3906 2549.1719,987.2031 Q2548.8438,986.8281 2548.2344,986.6094 Q2547.625,986.3906 2547,986.3906 Q2546.2344,986.3906 2545.5938,986.7188 Q2544.9688,987.0469 2544.4688,987.7969 Q2543.9844,988.5469 2543.9844,989.5781 L2543.9844,990.6719 Q2543.9844,991.9063 2544.875,992.7344 Q2545.7656,993.5469 2547.3594,993.5469 Q2548.2969,993.5469 2548.9531,993.2969 Q2549.3438,993.1406 2549.7656,992.7031 Q2550.0313,992.4375 2550.1719,992.3594 Q2550.3281,992.2813 2550.5313,992.2813 Q2550.8594,992.2813 2551.1094,992.5469 Q2551.375,992.7969 2551.375,993.1406 Q2551.375,993.4844 2551.0313,993.8906 Q2550.5313,994.4688 2549.7344,994.7969 Q2548.6563,995.25 2547.3594,995.25 Q2545.8438,995.25 2544.6406,994.625 Q2543.6563,994.125 2542.9688,993.0625 Q2542.2813,991.9844 2542.2813,990.7031 L2542.2813,989.5469 Q2542.2813,988.2188 2542.8906,987.0781 Q2543.5156,985.9219 2544.6094,985.3125 Q2545.7031,984.6875 2546.9375,984.6875 Q2547.6719,984.6875 2548.3125,984.8594 Q2548.9688,985.0156 2549.5156,985.375 Z " fill="#000000"/><text fill="#000000" font-family="sans-serif" font-size="14" lengthAdjust="spacing" textLength="128" x="2567.25" y="995.2285">HazardousGuidance</text><line style="stroke:#181818;stroke-width:0.5;" x1="2407" x2="2823" y1="1005.5" y2="1005.5"/><line style="stroke:#181818;stroke-width:0.5;" x1="2407" x2="2823" y1="1013.5" y2="1013.5"/><ellipse cx="2417" cy="1027.8047" fill="#84BE84" rx="3" ry="3" style="stroke:#038048;stroke-width:1.0;"/><text fill="#000000" font-family="sans-serif" font-size="14" lengthAdjust="spacing" textLength="380" x="2426" y="1032.0332">supports(compositions: List&lt;MaterialComposition&gt;): boolean</text><ellipse cx="2417" cy="1045.4141" fill="#84BE84" rx="3" ry="3" style="stroke:#038048;stroke-width:1.0;"/><text fill="#000000" font-family="sans-serif" font-size="14" lengthAdjust="spacing" textLength="392" x="2426" y="1049.6426">getGuidance(compositions: List&lt;MaterialComposition&gt;): String</text></g><!--class LandfillableGuidance--><g id="elem_LandfillableGuidance"><rect codeLine="133" fill="#F1F1F1" height="83.2188" id="LandfillableGuidance" rx="2.5" ry="2.5" style="stroke:#181818;stroke-width:0.5;" width="418" x="594" y="973.5"/><ellipse cx="732.25" cy="989.5" fill="#ADD1B2" rx="11" ry="11" style="stroke:#181818;stroke-width:1.0;"/><path d="M735.0156,985.375 Q735.1719,985.1563 735.3594,985.0469 Q735.5469,984.9375 735.7656,984.9375 Q736.1406,984.9375 736.375,985.2031 Q736.6094,985.4531 736.6094,986.0625 L736.6094,987.5156 Q736.6094,988.125 736.375,988.3906 Q736.1406,988.6563 735.7656,988.6563 Q735.4219,988.6563 735.2188,988.4531 Q735.0156,988.2656 734.9063,987.75 Q734.8594,987.3906 734.6719,987.2031 Q734.3438,986.8281 733.7344,986.6094 Q733.125,986.3906 732.5,986.3906 Q731.7344,986.3906 731.0938,986.7188 Q730.4688,987.0469 729.9688,987.7969 Q729.4844,988.5469 729.4844,989.5781 L729.4844,990.6719 Q729.4844,991.9063 730.375,992.7344 Q731.2656,993.5469 732.8594,993.5469 Q733.7969,993.5469 734.4531,993.2969 Q734.8438,993.1406 735.2656,992.7031 Q735.5313,992.4375 735.6719,992.3594 Q735.8281,992.2813 736.0313,992.2813 Q736.3594,992.2813 736.6094,992.5469 Q736.875,992.7969 736.875,993.1406 Q736.875,993.4844 736.5313,993.8906 Q736.0313,994.4688 735.2344,994.7969 Q734.1563,995.25 732.8594,995.25 Q731.3438,995.25 730.1406,994.625 Q729.1563,994.125 728.4688,993.0625 Q727.7813,991.9844 727.7813,990.7031 L727.7813,989.5469 Q727.7813,988.2188 728.3906,987.0781 Q729.0156,985.9219 730.1094,985.3125 Q731.2031,984.6875 732.4375,984.6875 Q733.1719,984.6875 733.8125,984.8594 Q734.4688,985.0156 735.0156,985.375 Z " fill="#000000"/><text fill="#000000" font-family="sans-serif" font-size="14" lengthAdjust="spacing" textLength="133" x="752.75" y="995.2285">LandfillableGuidance</text><line style="stroke:#181818;stroke-width:0.5;" x1="595" x2="1011" y1="1005.5" y2="1005.5"/><line style="stroke:#181818;stroke-width:0.5;" x1="595" x2="1011" y1="1013.5" y2="1013.5"/><ellipse cx="605" cy="1027.8047" fill="#84BE84" rx="3" ry="3" style="stroke:#038048;stroke-width:1.0;"/><text fill="#000000" font-family="sans-serif" font-size="14" lengthAdjust="spacing" textLength="380" x="614" y="1032.0332">supports(compositions: List&lt;MaterialComposition&gt;): boolean</text><ellipse cx="605" cy="1045.4141" fill="#84BE84" rx="3" ry="3" style="stroke:#038048;stroke-width:1.0;"/><text fill="#000000" font-family="sans-serif" font-size="14" lengthAdjust="spacing" textLength="392" x="614" y="1049.6426">getGuidance(compositions: List&lt;MaterialComposition&gt;): String</text></g><!--class MixedMaterialGuidance--><g id="elem_MixedMaterialGuidance"><rect codeLine="138" fill="#F1F1F1" height="83.2188" id="MixedMaterialGuidance" rx="2.5" ry="2.5" style="stroke:#181818;stroke-width:0.5;" width="418" x="1047" y="973.5"/><ellipse cx="1178.25" cy="989.5" fill="#ADD1B2" rx="11" ry="11" style="stroke:#181818;stroke-width:1.0;"/><path d="M1181.0156,985.375 Q1181.1719,985.1563 1181.3594,985.0469 Q1181.5469,984.9375 1181.7656,984.9375 Q1182.1406,984.9375 1182.375,985.2031 Q1182.6094,985.4531 1182.6094,986.0625 L1182.6094,987.5156 Q1182.6094,988.125 1182.375,988.3906 Q1182.1406,988.6563 1181.7656,988.6563 Q1181.4219,988.6563 1181.2188,988.4531 Q1181.0156,988.2656 1180.9063,987.75 Q1180.8594,987.3906 1180.6719,987.2031 Q1180.3438,986.8281 1179.7344,986.6094 Q1179.125,986.3906 1178.5,986.3906 Q1177.7344,986.3906 1177.0938,986.7188 Q1176.4688,987.0469 1175.9688,987.7969 Q1175.4844,988.5469 1175.4844,989.5781 L1175.4844,990.6719 Q1175.4844,991.9063 1176.375,992.7344 Q1177.2656,993.5469 1178.8594,993.5469 Q1179.7969,993.5469 1180.4531,993.2969 Q1180.8438,993.1406 1181.2656,992.7031 Q1181.5313,992.4375 1181.6719,992.3594 Q1181.8281,992.2813 1182.0313,992.2813 Q1182.3594,992.2813 1182.6094,992.5469 Q1182.875,992.7969 1182.875,993.1406 Q1182.875,993.4844 1182.5313,993.8906 Q1182.0313,994.4688 1181.2344,994.7969 Q1180.1563,995.25 1178.8594,995.25 Q1177.3438,995.25 1176.1406,994.625 Q1175.1563,994.125 1174.4688,993.0625 Q1173.7813,991.9844 1173.7813,990.7031 L1173.7813,989.5469 Q1173.7813,988.2188 1174.3906,987.0781 Q1175.0156,985.9219 1176.1094,985.3125 Q1177.2031,984.6875 1178.4375,984.6875 Q1179.1719,984.6875 1179.8125,984.8594 Q1180.4688,985.0156 1181.0156,985.375 Z " fill="#000000"/><text fill="#000000" font-family="sans-serif" font-size="14" lengthAdjust="spacing" textLength="147" x="1198.75" y="995.2285">MixedMaterialGuidance</text><line style="stroke:#181818;stroke-width:0.5;" x1="1048" x2="1464" y1="1005.5" y2="1005.5"/><line style="stroke:#181818;stroke-width:0.5;" x1="1048" x2="1464" y1="1013.5" y2="1013.5"/><ellipse cx="1058" cy="1027.8047" fill="#84BE84" rx="3" ry="3" style="stroke:#038048;stroke-width:1.0;"/><text fill="#000000" font-family="sans-serif" font-size="14" lengthAdjust="spacing" textLength="380" x="1067" y="1032.0332">supports(compositions: List&lt;MaterialComposition&gt;): boolean</text><ellipse cx="1058" cy="1045.4141" fill="#84BE84" rx="3" ry="3" style="stroke:#038048;stroke-width:1.0;"/><text fill="#000000" font-family="sans-serif" font-size="14" lengthAdjust="spacing" textLength="392" x="1067" y="1049.6426">getGuidance(compositions: List&lt;MaterialComposition&gt;): String</text></g><!--class ProductRepository--><g id="elem_ProductRepository"><rect codeLine="144" fill="#F1F1F1" height="83.2188" id="ProductRepository" rx="2.5" ry="2.5" style="stroke:#181818;stroke-width:0.5;" width="205" x="2326.5" y="581"/><ellipse cx="2366.7" cy="597" fill="#B4A7E5" rx="11" ry="11" style="stroke:#181818;stroke-width:1.0;"/><path d="M2367.6531,593.6406 L2367.6531,600.2969 L2369.3719,600.2969 Q2369.9813,600.2969 2370.2469,600.5313 Q2370.5125,600.7656 2370.5125,601.1563 Q2370.5125,601.5313 2370.2469,601.7656 Q2369.9813,602 2369.3719,602 L2364.2313,602 Q2363.6219,602 2363.3563,601.7656 Q2363.0906,601.5313 2363.0906,601.1406 Q2363.0906,600.7656 2363.3563,600.5313 Q2363.6219,600.2969 2364.2313,600.2969 L2365.95,600.2969 L2365.95,593.6406 L2364.2313,593.6406 Q2363.6219,593.6406 2363.3563,593.4063 Q2363.0906,593.1719 2363.0906,592.7813 Q2363.0906,592.4063 2363.3563,592.1719 Q2363.6219,591.9375 2364.2313,591.9375 L2369.3719,591.9375 Q2369.9813,591.9375 2370.2469,592.1719 Q2370.5125,592.4063 2370.5125,592.7813 Q2370.5125,593.1719 2370.2469,593.4063 Q2369.9813,593.6406 2369.3719,593.6406 L2367.6531,593.6406 Z " fill="#000000"/><text fill="#000000" font-family="sans-serif" font-size="14" font-style="italic" lengthAdjust="spacing" textLength="117" x="2386.3" y="602.7285">ProductRepository</text><line style="stroke:#181818;stroke-width:0.5;" x1="2327.5" x2="2530.5" y1="613" y2="613"/><line style="stroke:#181818;stroke-width:0.5;" x1="2327.5" x2="2530.5" y1="621" y2="621"/><ellipse cx="2337.5" cy="635.3047" fill="#84BE84" rx="3" ry="3" style="stroke:#038048;stroke-width:1.0;"/><text fill="#000000" font-family="sans-serif" font-size="14" lengthAdjust="spacing" textLength="179" x="2346.5" y="639.5332">save(product: Product): void</text><ellipse cx="2337.5" cy="652.9141" fill="#84BE84" rx="3" ry="3" style="stroke:#038048;stroke-width:1.0;"/><text fill="#000000" font-family="sans-serif" font-size="14" lengthAdjust="spacing" textLength="143" x="2346.5" y="657.1426">findAll(): List&lt;Product&gt;</text></g><!--class MaterialRepository--><g id="elem_MaterialRepository"><rect codeLine="149" fill="#F1F1F1" height="100.8281" id="MaterialRepository" rx="2.5" ry="2.5" style="stroke:#181818;stroke-width:0.5;" width="249" x="2574.5" y="572"/><ellipse cx="2635.25" cy="588" fill="#B4A7E5" rx="11" ry="11" style="stroke:#181818;stroke-width:1.0;"/><path d="M2636.2031,584.6406 L2636.2031,591.2969 L2637.9219,591.2969 Q2638.5313,591.2969 2638.7969,591.5313 Q2639.0625,591.7656 2639.0625,592.1563 Q2639.0625,592.5313 2638.7969,592.7656 Q2638.5313,593 2637.9219,593 L2632.7813,593 Q2632.1719,593 2631.9063,592.7656 Q2631.6406,592.5313 2631.6406,592.1406 Q2631.6406,591.7656 2631.9063,591.5313 Q2632.1719,591.2969 2632.7813,591.2969 L2634.5,591.2969 L2634.5,584.6406 L2632.7813,584.6406 Q2632.1719,584.6406 2631.9063,584.4063 Q2631.6406,584.1719 2631.6406,583.7813 Q2631.6406,583.4063 2631.9063,583.1719 Q2632.1719,582.9375 2632.7813,582.9375 L2637.9219,582.9375 Q2638.5313,582.9375 2638.7969,583.1719 Q2639.0625,583.4063 2639.0625,583.7813 Q2639.0625,584.1719 2638.7969,584.4063 Q2638.5313,584.6406 2637.9219,584.6406 L2636.2031,584.6406 Z " fill="#000000"/><text fill="#000000" font-family="sans-serif" font-size="14" font-style="italic" lengthAdjust="spacing" textLength="119" x="2655.75" y="593.7285">MaterialRepository</text><line style="stroke:#181818;stroke-width:0.5;" x1="2575.5" x2="2822.5" y1="604" y2="604"/><line style="stroke:#181818;stroke-width:0.5;" x1="2575.5" x2="2822.5" y1="612" y2="612"/><ellipse cx="2585.5" cy="626.3047" fill="#84BE84" rx="3" ry="3" style="stroke:#038048;stroke-width:1.0;"/><text fill="#000000" font-family="sans-serif" font-size="14" lengthAdjust="spacing" textLength="182" x="2594.5" y="630.5332">save(material: Material): void</text><ellipse cx="2585.5" cy="643.9141" fill="#84BE84" rx="3" ry="3" style="stroke:#038048;stroke-width:1.0;"/><text fill="#000000" font-family="sans-serif" font-size="14" lengthAdjust="spacing" textLength="144" x="2594.5" y="648.1426">findAll(): List&lt;Material&gt;</text><ellipse cx="2585.5" cy="661.5234" fill="#84BE84" rx="3" ry="3" style="stroke:#038048;stroke-width:1.0;"/><text fill="#000000" font-family="sans-serif" font-size="14" lengthAdjust="spacing" textLength="223" x="2594.5" y="665.752">findByName(name: String): Material</text></g><!--class InMemoryProductRepository--><g id="elem_InMemoryProductRepository"><rect codeLine="160" fill="#F1F1F1" height="100.8281" id="InMemoryProductRepository" rx="2.5" ry="2.5" style="stroke:#181818;stroke-width:0.5;" width="210" x="2880" y="759.5"/><ellipse cx="2895" cy="775.5" fill="#ADD1B2" rx="11" ry="11" style="stroke:#181818;stroke-width:1.0;"/><path d="M2897.7656,771.375 Q2897.9219,771.1563 2898.1094,771.0469 Q2898.2969,770.9375 2898.5156,770.9375 Q2898.8906,770.9375 2899.125,771.2031 Q2899.3594,771.4531 2899.3594,772.0625 L2899.3594,773.5156 Q2899.3594,774.125 2899.125,774.3906 Q2898.8906,774.6563 2898.5156,774.6563 Q2898.1719,774.6563 2897.9688,774.4531 Q2897.7656,774.2656 2897.6563,773.75 Q2897.6094,773.3906 2897.4219,773.2031 Q2897.0938,772.8281 2896.4844,772.6094 Q2895.875,772.3906 2895.25,772.3906 Q2894.4844,772.3906 2893.8438,772.7188 Q2893.2188,773.0469 2892.7188,773.7969 Q2892.2344,774.5469 2892.2344,775.5781 L2892.2344,776.6719 Q2892.2344,777.9063 2893.125,778.7344 Q2894.0156,779.5469 2895.6094,779.5469 Q2896.5469,779.5469 2897.2031,779.2969 Q2897.5938,779.1406 2898.0156,778.7031 Q2898.2813,778.4375 2898.4219,778.3594 Q2898.5781,778.2813 2898.7813,778.2813 Q2899.1094,778.2813 2899.3594,778.5469 Q2899.625,778.7969 2899.625,779.1406 Q2899.625,779.4844 2899.2813,779.8906 Q2898.7813,780.4688 2897.9844,780.7969 Q2896.9063,781.25 2895.6094,781.25 Q2894.0938,781.25 2892.8906,780.625 Q2891.9063,780.125 2891.2188,779.0625 Q2890.5313,777.9844 2890.5313,776.7031 L2890.5313,775.5469 Q2890.5313,774.2188 2891.1406,773.0781 Q2891.7656,771.9219 2892.8594,771.3125 Q2893.9531,770.6875 2895.1875,770.6875 Q2895.9219,770.6875 2896.5625,770.8594 Q2897.2188,771.0156 2897.7656,771.375 Z " fill="#000000"/><text fill="#000000" font-family="sans-serif" font-size="14" lengthAdjust="spacing" textLength="178" x="2909" y="781.2285">InMemoryProductRepository</text><line style="stroke:#181818;stroke-width:0.5;" x1="2881" x2="3089" y1="791.5" y2="791.5"/><rect fill="none" height="6" style="stroke:#C82930;stroke-width:1.0;" width="6" x="2888" y="802.8047"/><text fill="#000000" font-family="sans-serif" font-size="14" lengthAdjust="spacing" textLength="150" x="2900" y="810.0332">products: List&lt;Product&gt;</text><line style="stroke:#181818;stroke-width:0.5;" x1="2881" x2="3089" y1="817.1094" y2="817.1094"/><ellipse cx="2891" cy="831.4141" fill="#84BE84" rx="3" ry="3" style="stroke:#038048;stroke-width:1.0;"/><text fill="#000000" font-family="sans-serif" font-size="14" lengthAdjust="spacing" textLength="179" x="2900" y="835.6426">save(product: Product): void</text><ellipse cx="2891" cy="849.0234" fill="#84BE84" rx="3" ry="3" style="stroke:#038048;stroke-width:1.0;"/><text fill="#000000" font-family="sans-serif" font-size="14" lengthAdjust="spacing" textLength="143" x="2900" y="853.252">findAll(): List&lt;Product&gt;</text></g><!--class InMemoryMaterialRepository--><g id="elem_InMemoryMaterialRepository"><rect codeLine="166" fill="#F1F1F1" height="118.4375" id="InMemoryMaterialRepository" rx="2.5" ry="2.5" style="stroke:#181818;stroke-width:0.5;" width="249" x="3125.5" y="751"/><ellipse cx="3157.6" cy="767" fill="#ADD1B2" rx="11" ry="11" style="stroke:#181818;stroke-width:1.0;"/><path d="M3160.3656,762.875 Q3160.5219,762.6563 3160.7094,762.5469 Q3160.8969,762.4375 3161.1156,762.4375 Q3161.4906,762.4375 3161.725,762.7031 Q3161.9594,762.9531 3161.9594,763.5625 L3161.9594,765.0156 Q3161.9594,765.625 3161.725,765.8906 Q3161.4906,766.1563 3161.1156,766.1563 Q3160.7719,766.1563 3160.5688,765.9531 Q3160.3656,765.7656 3160.2563,765.25 Q3160.2094,764.8906 3160.0219,764.7031 Q3159.6938,764.3281 3159.0844,764.1094 Q3158.475,763.8906 3157.85,763.8906 Q3157.0844,763.8906 3156.4438,764.2188 Q3155.8188,764.5469 3155.3188,765.2969 Q3154.8344,766.0469 3154.8344,767.0781 L3154.8344,768.1719 Q3154.8344,769.4063 3155.725,770.2344 Q3156.6156,771.0469 3158.2094,771.0469 Q3159.1469,771.0469 3159.8031,770.7969 Q3160.1938,770.6406 3160.6156,770.2031 Q3160.8813,769.9375 3161.0219,769.8594 Q3161.1781,769.7813 3161.3813,769.7813 Q3161.7094,769.7813 3161.9594,770.0469 Q3162.225,770.2969 3162.225,770.6406 Q3162.225,770.9844 3161.8813,771.3906 Q3161.3813,771.9688 3160.5844,772.2969 Q3159.5063,772.75 3158.2094,772.75 Q3156.6938,772.75 3155.4906,772.125 Q3154.5063,771.625 3153.8188,770.5625 Q3153.1313,769.4844 3153.1313,768.2031 L3153.1313,767.0469 Q3153.1313,765.7188 3153.7406,764.5781 Q3154.3656,763.4219 3155.4594,762.8125 Q3156.5531,762.1875 3157.7875,762.1875 Q3158.5219,762.1875 3159.1625,762.3594 Q3159.8188,762.5156 3160.3656,762.875 Z " fill="#000000"/><text fill="#000000" font-family="sans-serif" font-size="14" lengthAdjust="spacing" textLength="179" x="3175.4" y="772.7285">InMemoryMaterialRepository</text><line style="stroke:#181818;stroke-width:0.5;" x1="3126.5" x2="3373.5" y1="783" y2="783"/><rect fill="none" height="6" style="stroke:#C82930;stroke-width:1.0;" width="6" x="3133.5" y="794.3047"/><text fill="#000000" font-family="sans-serif" font-size="14" lengthAdjust="spacing" textLength="153" x="3145.5" y="801.5332">materials: List&lt;Material&gt;</text><line style="stroke:#181818;stroke-width:0.5;" x1="3126.5" x2="3373.5" y1="808.6094" y2="808.6094"/><ellipse cx="3136.5" cy="822.9141" fill="#84BE84" rx="3" ry="3" style="stroke:#038048;stroke-width:1.0;"/><text fill="#000000" font-family="sans-serif" font-size="14" lengthAdjust="spacing" textLength="182" x="3145.5" y="827.1426">save(material: Material): void</text><ellipse cx="3136.5" cy="840.5234" fill="#84BE84" rx="3" ry="3" style="stroke:#038048;stroke-width:1.0;"/><text fill="#000000" font-family="sans-serif" font-size="14" lengthAdjust="spacing" textLength="144" x="3145.5" y="844.752">findAll(): List&lt;Material&gt;</text><ellipse cx="3136.5" cy="858.1328" fill="#84BE84" rx="3" ry="3" style="stroke:#038048;stroke-width:1.0;"/><text fill="#000000" font-family="sans-serif" font-size="14" lengthAdjust="spacing" textLength="223" x="3145.5" y="862.3613">findByName(name: String): Material</text></g><!--link ConsoleUI to ProductService--><g id="link_ConsoleUI_ProductService"><path codeLine="179" d="M2318.1,231.34 C2292.03,255.82 2268.3031,278.1019 2242.2331,302.5919 " fill="none" id="ConsoleUI-to-ProductService" style="stroke:#181818;stroke-width:1.0;"/><polygon fill="#181818" points="2237.86,306.7,2247.1583,303.4533,2241.5042,303.2766,2241.6809,297.6225,2237.86,306.7" style="stroke:#181818;stroke-width:1.0;"/></g><!--link ConsoleUI to MaterialService--><g id="link_ConsoleUI_MaterialService"><path codeLine="180" d="M2518.26,231.34 C2554.19,264.97 2589.5899,298.0894 2622.6499,329.0394 " fill="none" id="ConsoleUI-to-MaterialService" style="stroke:#181818;stroke-width:1.0;"/><polygon fill="#181818" points="2627.03,333.14,2623.1935,324.0691,2623.3799,329.7229,2617.7261,329.9092,2627.03,333.14" style="stroke:#181818;stroke-width:1.0;"/></g><!--link ProductService to Product--><g id="link_ProductService_Product"><path codeLine="183" d="M1772.99,440.57 C1610.57,460.91 1417.63,489.77 1246,528 C976.27,588.08 676.5431,687.0178 496.1831,750.1478 " fill="none" id="ProductService-to-Product" style="stroke:#181818;stroke-width:1.0;"/><polygon fill="#181818" points="490.52,752.13,500.3361,752.9321,495.2393,750.4782,497.6932,745.3813,490.52,752.13" style="stroke:#181818;stroke-width:1.0;"/></g><!--link ProductService to ImpactCalculationStrategy--><g id="link_ProductService_ImpactCalculationStrategy"><path codeLine="184" d="M2138,496.01 C2138,529.38 2138,558.77 2138,583.43 " fill="none" id="ProductService-to-ImpactCalculationStrategy" style="stroke:#181818;stroke-width:1.0;"/><polygon fill="#181818" points="2138,589.43,2142,580.43,2138,584.43,2134,580.43,2138,589.43" style="stroke:#181818;stroke-width:1.0;"/></g><!--link ProductService to ProductRepository--><g id="link_ProductService_ProductRepository"><path codeLine="185" d="M2262.25,496.01 C2301.65,525.66 2338.3663,553.2916 2370.1163,577.1916 " fill="none" id="ProductService-to-ProductRepository" style="stroke:#181818;stroke-width:1.0;"/><polygon fill="#181818" points="2374.91,580.8,2370.1252,572.1916,2370.9153,577.793,2365.3139,578.5831,2374.91,580.8" style="stroke:#181818;stroke-width:1.0;"/></g><!--link ProductService to GuidanceSelector--><g id="link_ProductService_GuidanceSelector"><path codeLine="186" d="M1857.89,496.01 C1779.71,522.11 1703.5113,547.5501 1636.2013,570.0201 " fill="none" id="ProductService-to-GuidanceSelector" style="stroke:#181818;stroke-width:1.0;"/><polygon fill="#181818" points="1630.51,571.92,1640.3135,572.8643,1635.2527,570.3367,1637.7803,565.276,1630.51,571.92" style="stroke:#181818;stroke-width:1.0;"/></g><!--link MaterialService to Material--><g id="link_MaterialService_Material"><path codeLine="188" d="M2860.04,442 C3110.82,511.42 3550.2,669.44 3391,893 C3196.05,1166.76 2115.6391,1210.7974 1712.0191,1217.6974 " fill="none" id="MaterialService-to-Material" style="stroke:#181818;stroke-width:1.0;"/><polygon fill="#181818" points="1706.02,1217.8,1715.0871,1221.6456,1711.0193,1217.7145,1714.9503,1213.6467,1706.02,1217.8" style="stroke:#181818;stroke-width:1.0;"/></g><!--link MaterialService to MaterialRepository--><g id="link_MaterialService_MaterialRepository"><path codeLine="189" d="M2699,469.7 C2699,502.64 2699,535.62 2699,565.83 " fill="none" id="MaterialService-to-MaterialRepository" style="stroke:#181818;stroke-width:1.0;"/><polygon fill="#181818" points="2699,571.83,2703,562.83,2699,566.83,2695,562.83,2699,571.83" style="stroke:#181818;stroke-width:1.0;"/></g><!--reverse link ImpactCalculationStrategy to SimpleImpactStrategy--><g id="link_ImpactCalculationStrategy_SimpleImpactStrategy"><path codeLine="192" d="M2104.3449,670.4409 C2080.0149,704.3909 2052.44,742.83 2028.12,776.75 " fill="none" id="ImpactCalculationStrategy-backto-SimpleImpactStrategy" style="stroke:#181818;stroke-width:1.0;stroke-dasharray:7.0,7.0;"/><polygon fill="none" points="2114.83,655.81,2099.4679,666.9458,2109.2219,673.9359,2114.83,655.81" style="stroke:#181818;stroke-width:1.0;"/></g><!--reverse link ImpactCalculationStrategy to WeightedImpactStrategy--><g id="link_ImpactCalculationStrategy_WeightedImpactStrategy"><path codeLine="193" d="M2184.1813,668.3519 C2219.1313,702.3019 2260.86,742.83 2295.79,776.75 " fill="none" id="ImpactCalculationStrategy-backto-WeightedImpactStrategy" style="stroke:#181818;stroke-width:1.0;stroke-dasharray:7.0,7.0;"/><polygon fill="none" points="2171.27,655.81,2180.0007,672.6556,2188.3619,664.0481,2171.27,655.81" style="stroke:#181818;stroke-width:1.0;"/></g><!--reverse link RecyclingGuide to RecyclableGuidance--><g id="link_RecyclingGuide_RecyclableGuidance"><path codeLine="196" d="M1540.8065,863.5899 C1580.3965,898.9999 1624.12,938.09 1663.69,973.48 " fill="none" id="RecyclingGuide-backto-RecyclableGuidance" style="stroke:#181818;stroke-width:1.0;stroke-dasharray:7.0,7.0;"/><polygon fill="none" points="1527.39,851.59,1536.8065,868.0621,1544.8064,859.1178,1527.39,851.59" style="stroke:#181818;stroke-width:1.0;"/></g><!--reverse link RecyclingGuide to CompostableGuidance--><g id="link_RecyclingGuide_CompostableGuidance"><path codeLine="197" d="M1635.2177,856.7396 C1753.8177,892.1496 1907.73,938.09 2026.26,973.48 " fill="none" id="RecyclingGuide-backto-CompostableGuidance" style="stroke:#181818;stroke-width:1.0;stroke-dasharray:7.0,7.0;"/><polygon fill="none" points="1617.97,851.59,1633.5011,862.4888,1636.9342,850.9904,1617.97,851.59" style="stroke:#181818;stroke-width:1.0;"/></g><!--reverse link RecyclingGuide to HazardousGuidance--><g id="link_RecyclingGuide_HazardousGuidance"><path codeLine="198" d="M1658.1665,855.6837 C1720.8565,870.5137 1776.23,882.16 1843,893 C2083.7,932.08 2149.7,900.13 2389,947 C2423.44,953.74 2460.16,963.49 2493.78,973.46 " fill="none" id="RecyclingGuide-backto-HazardousGuidance" style="stroke:#181818;stroke-width:1.0;stroke-dasharray:7.0,7.0;"/><polygon fill="none" points="1640.65,851.54,1656.7853,861.5226,1659.5478,849.8449,1640.65,851.54" style="stroke:#181818;stroke-width:1.0;"/></g><!--reverse link RecyclingGuide to LandfillableGuidance--><g id="link_RecyclingGuide_LandfillableGuidance"><path codeLine="199" d="M1328.9844,856.7464 C1210.5544,892.1564 1056.89,938.09 938.54,973.48 " fill="none" id="RecyclingGuide-backto-LandfillableGuidance" style="stroke:#181818;stroke-width:1.0;stroke-dasharray:7.0,7.0;"/><polygon fill="none" points="1346.23,851.59,1327.2656,850.9978,1330.7032,862.4949,1346.23,851.59" style="stroke:#181818;stroke-width:1.0;"/></g><!--reverse link RecyclingGuide to MixedMaterialGuidance--><g id="link_RecyclingGuide_MixedMaterialGuidance"><path codeLine="200" d="M1423.4192,863.6186 C1383.9992,899.0286 1340.51,938.09 1301.11,973.48 " fill="none" id="RecyclingGuide-backto-MixedMaterialGuidance" style="stroke:#181818;stroke-width:1.0;stroke-dasharray:7.0,7.0;"/><polygon fill="none" points="1436.81,851.59,1419.4097,859.155,1427.4288,868.0822,1436.81,851.59" style="stroke:#181818;stroke-width:1.0;"/></g><!--link RecyclingGuide to MaterialComposition--><g id="link_RecyclingGuide_MaterialComposition"><path codeLine="201" d="M1272.89,844.64 C1177.51,859.78 1063.1,877.65 960,893 C789.53,918.37 740.86,896.75 576,947 C570.27,948.75 570.1153,948.6402 564.3153,950.7602 " fill="none" id="RecyclingGuide-to-MaterialComposition" style="stroke:#181818;stroke-width:1.0;"/><polygon fill="#181818" points="558.68,952.82,568.5062,953.4872,563.3761,951.1035,565.7598,945.9734,558.68,952.82" style="stroke:#181818;stroke-width:1.0;"/></g><!--link GuidanceSelector to RecyclingGuide--><g id="link_GuidanceSelector_RecyclingGuide"><path codeLine="203" d="M1482,673.21 C1482,702.94 1482,734.24 1482,762.23 " fill="none" id="GuidanceSelector-to-RecyclingGuide" style="stroke:#181818;stroke-width:1.0;"/><polygon fill="#181818" points="1482,768.23,1486,759.23,1482,763.23,1478,759.23,1482,768.23" style="stroke:#181818;stroke-width:1.0;"/></g><!--link GuidanceSelector to MaterialComposition--><g id="link_GuidanceSelector_MaterialComposition"><path codeLine="204" d="M1326.96,673.13 C1144.97,732.7 835.1,838.23 576,947 C570.35,949.37 570.086,949.4302 564.306,951.9902 " fill="none" id="GuidanceSelector-to-MaterialComposition" style="stroke:#181818;stroke-width:1.0;"/><polygon fill="#181818" points="558.82,954.42,568.6688,954.4327,563.3917,952.3952,565.4291,947.118,558.82,954.42" style="stroke:#181818;stroke-width:1.0;"/></g><!--reverse link ProductRepository to InMemoryProductRepository--><g id="link_ProductRepository_InMemoryProductRepository"><path codeLine="207" d="M2543.4663,669.682 C2553.6963,673.072 2546.94,670.49 2557,673 C2679.92,703.64 2721.72,661.63 2840,707 C2871.75,719.18 2903.11,739.85 2928.5,759.41 " fill="none" id="ProductRepository-backto-InMemoryProductRepository" style="stroke:#181818;stroke-width:1.0;stroke-dasharray:7.0,7.0;"/><polygon fill="none" points="2526.38,664.02,2541.579,675.3775,2545.3536,663.9866,2526.38,664.02" style="stroke:#181818;stroke-width:1.0;"/></g><!--reverse link MaterialRepository to InMemoryMaterialRepository--><g id="link_MaterialRepository_InMemoryMaterialRepository"><path codeLine="208" d="M2841.7524,637.5664 C2924.9424,648.6464 3017.36,667.37 3108,707 C3133.59,718.19 3159.12,734.51 3181.34,750.82 " fill="none" id="MaterialRepository-backto-InMemoryMaterialRepository" style="stroke:#181818;stroke-width:1.0;stroke-dasharray:7.0,7.0;"/><polygon fill="none" points="2823.91,635.19,2840.9603,643.5139,2842.5446,631.6189,2823.91,635.19" style="stroke:#181818;stroke-width:1.0;"/></g><!--reverse link Product to Category--><g id="link_Product_Category"><path codeLine="211" d="M288.0883,897.8293 C274.7683,923.5893 265.75,941.02 253.76,964.2 " fill="none" id="Product-backto-Category" style="stroke:#181818;stroke-width:1.0;"/><polygon fill="#181818" points="293.6,887.17,287.291,890.6624,288.0883,897.8293,294.3972,894.3369,293.6,887.17" style="stroke:#181818;stroke-width:1.0;"/><text fill="#000000" font-family="sans-serif" font-size="13" lengthAdjust="spacing" textLength="7" x="282.7792" y="908.2815">1</text><text fill="#000000" font-family="sans-serif" font-size="13" lengthAdjust="spacing" textLength="7" x="249.8903" y="953.4632">1</text></g><!--reverse link Product to Lifespan--><g id="link_Product_Lifespan"><path codeLine="212" d="M221.9428,894.4821 C197.0128,913.6821 180.08,927.17 156,947 C145.82,955.39 135.08,964.61 124.98,973.46 " fill="none" id="Product-backto-Lifespan" style="stroke:#181818;stroke-width:1.0;"/><polygon fill="#181818" points="231.45,887.16,224.2557,887.652,221.9428,894.4821,229.1371,893.9901,231.45,887.16" style="stroke:#181818;stroke-width:1.0;"/><text fill="#000000" font-family="sans-serif" font-size="13" lengthAdjust="spacing" textLength="7" x="215.094" y="908.2706">1</text><text fill="#000000" font-family="sans-serif" font-size="13" lengthAdjust="spacing" textLength="7" x="124.8501" y="962.7611">1</text></g><!--reverse link Product to MaterialComposition--><g id="link_Product_MaterialComposition"><path codeLine="213" d="M377.912,897.8291 C388.032,917.3991 393.34,927.66 403.22,946.75 " fill="none" id="Product-backto-MaterialComposition" style="stroke:#181818;stroke-width:1.0;"/><polygon fill="#181818" points="372.4,887.17,371.603,894.3369,377.912,897.8291,378.7091,890.6622,372.4,887.17" style="stroke:#181818;stroke-width:1.0;"/><text fill="#000000" font-family="sans-serif" font-size="13" lengthAdjust="spacing" textLength="7" x="368.5973" y="908.2815">1</text><text fill="#000000" font-family="sans-serif" font-size="13" lengthAdjust="spacing" textLength="20" x="378.3222" y="935.9219">1..*</text></g><!--link MaterialComposition to Material--><g id="link_MaterialComposition_Material"><path codeLine="214" d="M558.68,1077.19 C564.47,1079.3 570.27,1081.26 576,1083 C860.65,1169.5 1202.7903,1200.8578 1397.8503,1212.3278 " fill="none" id="MaterialComposition-to-Material" style="stroke:#181818;stroke-width:1.0;"/><polygon fill="#181818" points="1403.84,1212.68,1395.0903,1208.1586,1398.8486,1212.3865,1394.6207,1216.1448,1403.84,1212.68" style="stroke:#181818;stroke-width:1.0;"/><text fill="#000000" font-family="sans-serif" font-size="13" lengthAdjust="spacing" textLength="5" x="566.5712" y="1078.1664">*</text><text fill="#000000" font-family="sans-serif" font-size="13" lengthAdjust="spacing" textLength="7" x="1388.8653" y="1209.4031">1</text></g><!--link Material to RecyclingCategory--><g id="link_Material_RecyclingCategory"><path codeLine="215" d="M1555,1297.12 C1555,1316.97 1555,1332.04 1555,1350.8 " fill="none" id="Material-to-RecyclingCategory" style="stroke:#181818;stroke-width:1.0;"/><polygon fill="#181818" points="1555,1356.8,1559,1347.8,1555,1351.8,1551,1347.8,1555,1356.8" style="stroke:#181818;stroke-width:1.0;"/><text fill="#000000" font-family="sans-serif" font-size="13" lengthAdjust="spacing" textLength="5" x="1549.7773" y="1318.2271">*</text><text fill="#000000" font-family="sans-serif" font-size="13" lengthAdjust="spacing" textLength="7" x="1547.5734" y="1346.0999">1</text></g><!--SRC=[rHZBRjiuyAwl87ontSGfUWsw1HJ5cnYLuwpTRf7U68bssEfLKGhgxlRVbtgG6ZwaLO0S4XyIUpZl1papK_I7_UDCqMrE64aAND0qGJu-afm3-z0p77p71u8c6Q2Qe7ySn3z1X1b3NfgmD2AVLosq-YnGbgTX6HGxaZ_IW9npgV0tG8nnGNAA8ucvLW4IzGIn0kV5R7wE7bCQ0XOXPLc4ZskIb9RJ1vo44N73i5MX5yMdh6Xns10VeU0W8u6aSlhj_7O6l3r5RfP5D7XYR717f8P6TReI7rRaNCF3yHojOiwey70Kb57DOzSU0UoSP2cZHPeVPIIt4WIvaeW477QEhaeQuYGWknO2mgXgDHkXoUcm0gS3SkT0SD1o9esWMPkZaYEFL9YMzn7CkI0dd42aZeL2oO0JT2256qKmZQfiUDy2FgYOMn8SWuWc1w6rJG1t0iTeqmS4LwiJ9RhGNGBF4h0JdSbic71kE4RMWYZZZgpFDqfbrCuH4EYTFKraeLqSRt1CPWd_8zmnx-ICAwpBDCRq2JKLrlYYdEe_KtxLvGGjau8Mb32ppfGGG6q1EAWIkdQlrtu3Xn7T4vRXfF9BymrIfd4T1ruNJ7ESrnrf6LOxRcxeKPy1AZCM1ajhxesn-1wpjk3-nb59Z1ghihKj0qywPwk3nfjr8UNDR0KDoqumhn3j4grM0zye3lXHuYetZXOJpV9GLVgh9UrJ6RuvTWvFj4M_9nL3Q9n59AwUUww8I3RbiY8mptHUip7qy2vfhk_Po0o71jQye7LJL6SPsjn_uomPUilhjOoROkNzGIpB3XYyz9VUf-tcPkNj9EnwytctlDxubn9owteVtQlLpPNfJ56jYXEF1EVS39eKQg3kAdWL9N7IiggrCo87MABjqhlpVFV2NtOmRxE-tUm-gS1hzwkxlUGMT23VlRdyS-Nxgg_40ujM2VVp7hVj5XM_-fzaeDTJ7rR5TRiwLngwv-RzXT33Gq72v-O-5HbVEQZ7SMg6AZ9PcMLfpfk3yVb-d_8E6xm6TIB9fc4ydxvUej6sgbR1zALhtA0LhqdbQ_mBvpoRs6jHsEVJp9v6hoelrlGdaOtZorTwYhhkkhjBc7QP61EFQX1-92CcawgZvkstVIHfrUb4cis_ANDCpwzBxUlrdwF7NoNx7FDnabjLyaPzTAzF5JfrX5ubQn9pwuT28BSTh7_QUyOWgOeD1gfhFDc0_rzaCBUaQJZO0ytO0AQ-qLfyW4iKfzjEBVY9jeLI3_N5axQEuHZD4EbeQnN0s7RKlr_fvmDcTGkIiLjnz5q0D6Vm40XoO3ie6_Ww14v_6_Z-txCpQnFtVpJsvgpIGjxQkXPQJrMpCJiNAvgbNR3Y6M-q5SlsC5eHhQ-HZWdZ0HuCnp5cj0fJ6tsiE5PkwbEZkTQytchzUsy_ntBjA1Js16ktC3jnrmgvQF9kWjui5lL_ERJQ3kLYn3myEtipiPfkczid7BToLKLkL8foQWxJ_m40]--></g></svg>